<?xml version="1.0" encoding="UTF-8"?><svg id="Layer_2" xmlns="http://www.w3.org/2000/svg" viewBox="0 0 450 450"><defs><style>.cls-1{fill:#e0c545;}.cls-1,.cls-2{fill-rule:evenodd;}.cls-3{fill:none;}.cls-2{fill:#d9eff2;}</style></defs><g id="Layer_11"><g><polygon class="cls-2" points="233.76 63.76 239.65 64.32 246.38 66 257.88 70.49 267.98 73.85 282.57 81.71 292.66 92.09 301.08 99.66 310.62 112.56 320.99 121.54 326.04 129.67 332.77 138.37 338.1 148.19 340.91 154.36 339.23 159.69 339.51 164.74 347.08 172.03 356.34 185.21 362.23 196.71 362.51 202.04 363.07 211.02 369.52 227.85 374.01 242.15 372.61 248.04 370.92 256.74 371.48 270.48 373.54 286.22 375.5 292.67 380.18 306.59 382.6 318.88 383.32 332.49 376.3 348.96 356.69 361.79 353.3 355.25 347.25 359.13 337.08 366.87 313.84 375.11 297.66 378.25 297.66 370.75 280.67 376.07 260.33 380.18 238.06 383.82 225 386.24 211.94 383.82 189.67 380.18 169.33 376.07 152.34 370.75 152.34 378.25 136.16 375.11 112.92 366.87 102.75 359.13 96.7 355.25 93.31 361.79 73.7 348.96 66.68 332.49 67.4 318.88 69.82 306.59 74.5 292.67 76.46 286.22 78.52 270.48 79.08 256.74 77.4 248.04 75.99 242.15 80.48 227.85 86.93 211.02 87.49 202.04 87.77 196.71 93.66 185.21 102.92 172.03 110.49 164.74 110.77 159.69 109.09 154.36 111.9 148.19 117.23 138.37 123.96 129.67 129.01 121.54 139.39 112.56 148.92 99.66 157.34 92.09 167.43 81.71 182.02 73.85 192.12 70.49 203.62 66 210.35 64.32 216.24 63.76 225 66 233.76 63.76"/><path class="cls-1" d="m317.11,169.58l-5.39.64-4.47-1.52-6.31-1.87-6.75.53-7.59,2.53-6.56,8.73-1.82,8.16,3.25,7.36,9.85,6.34,8.6-.18,9.54-3.94,5.42-7.3,2.21-7.35-.68-7.64.71-4.49Zm-184.21,0l5.39.64,4.47-1.52,6.31-1.87,6.75.53,7.59,2.53,6.56,8.73,1.82,8.16-3.25,7.36-9.85,6.34-8.6-.18-9.54-3.94-5.42-7.3-2.21-7.35.68-7.64-.71-4.49Zm89.35,148.16l-2.53-2.3-2.41-4.37-1.61-3.56-3-16.31-2.97-7.93-4.94-11.6-3.91-5.05-6.09-4.94-8.73-7.01-7.01-4.37-7.93-3.33-8.85-2.3-10.67-3.68-5.53-2.87-1.03-1.72,4.83-2.18,8.39-1.72,8.96-4.25,7.01-4.6,6.66-6.78s5.75-10.46,5.86-11.49c.11-1.04.46-8.16.46-8.16l1.15-6.43,2.3-10.45,3.68-6.09,6.89-6.66,7.12-5.23,5.74-3.5,4.71-1.15,6.21-.12,6.21.12,4.71,1.15,5.74,3.5,7.12,5.23,6.89,6.66,3.68,6.09,2.3,10.45,1.15,6.43s.35,7.12.46,8.16c.11,1.03,5.86,11.49,5.86,11.49l6.66,6.78,7.01,4.6,8.96,4.25,8.39,1.72,4.83,2.18-1.03,1.72-5.53,2.87-10.67,3.68-8.85,2.3-7.93,3.33-7.01,4.37-8.73,7.01-6.09,4.94-3.91,5.05-4.94,11.6-2.97,7.93-3,16.31-1.61,3.56-2.41,4.37-2.53,2.3-2.76,1.15-2.76-1.15Z"/></g><rect class="cls-3" width="450" height="450"/></g></svg>