<?xml version="1.0" encoding="UTF-8"?><svg id="Layer_2" xmlns="http://www.w3.org/2000/svg" viewBox="0 0 450 450"><defs><style>.cls-1{fill:#ea864c;}.cls-1,.cls-2{fill-rule:evenodd;}.cls-2{fill:#3e2d2d;}.cls-3{fill:none;}</style></defs><g id="Layer_16"><g><polygon class="cls-1" points="208.54 418.29 184.97 411.86 152.83 397.29 144.33 402.86 139.54 396 127.97 384.86 115.82 373.29 91.55 346.28 82.12 341.57 76.12 332.57 72.26 312.86 64.55 306.43 49.55 282.75 41.4 262.29 35.83 264.86 36.26 246.86 36.69 226.71 42.69 210.37 49.55 195 55.12 182.18 47.83 187.29 48.26 182.18 52.97 169.29 64.12 152.14 69.26 142.29 68.4 133.75 76.12 126 85.55 112.71 96.49 89.57 103.12 76.51 115.82 70.71 124.54 53.14 136.54 43.71 152.4 33.86 173.4 33.86 189.69 28.71 210.26 33.43 239.74 33.43 260.31 28.71 276.6 33.86 297.6 33.86 313.45 43.71 325.45 53.14 334.18 70.71 346.88 76.51 353.51 89.57 364.45 112.71 373.88 126 381.6 133.75 380.74 142.29 385.88 152.14 397.03 169.29 401.74 182.18 402.17 187.29 394.88 182.18 400.45 195 407.31 210.37 413.31 226.71 413.74 246.86 414.17 264.86 408.6 262.29 400.45 282.75 385.45 306.43 377.74 312.86 373.88 332.57 367.88 341.57 358.45 346.28 334.18 373.29 322.03 384.86 310.45 396 305.67 402.86 297.17 397.29 265.03 411.86 241.45 418.29 225 421.29 208.54 418.29"/><g><polygon class="cls-2" points="222.1 316.52 223.38 305.73 223.1 301.52 221.33 297.8 218.19 293.65 214.26 289.38 211 284.93 206.95 280.28 203.36 280.95 199.76 282.07 195.72 279.71 192.24 276.34 191.56 273.42 193.54 268.59 199.12 261.09 200.95 259.88 203.61 258.72 207.28 258.58 212.81 259.44 216.98 261.6 222.38 263.97 225 264.12 227.62 263.97 233.01 261.6 237.18 259.44 242.72 258.58 246.39 258.72 249.05 259.88 250.88 261.09 256.45 268.59 258.44 273.42 257.76 276.34 254.28 279.71 250.24 282.07 246.64 280.95 243.05 280.28 239 284.93 235.74 289.38 231.81 293.65 228.71 297.74 228.76 297.8 227 301.52 226.72 305.73 228 316.55 227.98 316.55 240.59 321.36 246.57 326.65 260.86 329.69 270.99 326.33 279.3 326.33 282.54 325.85 279.2 330.49 274.94 331.13 266.63 333.21 257.52 335.29 248.14 335.01 242.04 329.64 235.36 324.1 225 320.88 214.64 324.1 207.96 329.64 201.86 335.01 192.48 335.29 183.36 333.21 175.06 331.13 170.8 330.49 167.46 325.85 170.7 326.33 179.01 326.33 189.14 329.69 203.43 326.65 209.41 321.36 222.1 316.52"/><polygon class="cls-2" points="168.71 173.57 163.05 173.75 158.38 175.74 157.92 169.91 154.54 167.11 145.21 170.72 135.42 176.43 134.49 177.6 144.75 177.83 151.51 176.67 154.07 182.61 156.99 187.16 163.26 192.79 162.59 194.2 156.75 203.77 149.03 214.09 137.33 227.56 134.49 232.25 134.75 236.49 139.14 230.57 147.14 222.25 152.66 214.28 156.63 209.86 153.85 215.27 152.78 242.19 155.05 257.14 157.05 267.23 157.74 236.92 158.53 216.55 165.47 203.53 170.53 207.01 169.05 195.16 169.3 194.69 169.93 194.85 173.42 194.15 178.04 192.02 181.21 191.74 183.57 196.02 188.69 206.05 190.31 204.41 188.11 198.7 184.61 187.98 180.77 178.3 175.87 174.57 174.88 174.39 174.26 168.82 178.82 165.7 184.94 162.76 187.91 155.6 188.63 150.74 182.77 157.38 179.06 160.78 171.75 163.77 169.69 158.12 170.78 152.05 175.24 148.95 174.62 146.15 175.15 139.63 171.87 144.28 166.63 149.21 164.86 156.33 167.09 165.77 168.71 173.57"/><polygon class="cls-2" points="311.23 177.6 300.97 177.83 294.21 176.67 291.64 182.61 288.73 187.16 281.97 193.22 275.79 194.85 272.29 194.15 267.67 192.02 264.5 191.74 262.15 196.02 257.02 206.05 255.41 204.41 257.6 198.7 261.1 187.98 264.95 178.3 269.84 174.57 275.55 173.52 282.67 173.75 287.33 175.74 287.8 169.91 291.18 167.11 300.5 170.72 310.29 176.43 311.23 177.6"/><polygon class="cls-2" points="370.76 150.95 376.38 135.23 378.29 126.69 376.66 118.13 372.04 110.23 366.45 105.15 359.1 104.17 347.11 107.48 332.76 109.79 335.86 113.67 342.97 114.84 351.46 110.45 359.94 110.16 367.61 117.29 370.91 125.37 371.27 133.2 368.49 142.13 367.35 152.98 366.88 159.02 370.76 150.95"/><polygon class="cls-2" points="79.15 150.95 73.53 135.23 71.62 126.69 73.25 118.13 77.87 110.23 83.47 105.15 90.81 104.17 102.8 107.48 117.15 109.79 114.05 113.67 106.94 114.84 98.46 110.45 89.97 110.16 82.3 117.29 79 125.37 78.64 133.2 81.42 142.13 82.56 152.98 83.03 159.02 79.15 150.95"/></g></g><rect class="cls-3" width="450" height="450"/></g></svg>