<?xml version="1.0" encoding="UTF-8"?><svg id="Layer_2" xmlns="http://www.w3.org/2000/svg" viewBox="0 0 450 450"><defs><style>.cls-1{fill:#d6d7d9;}.cls-1,.cls-2{fill-rule:evenodd;}.cls-3{fill:none;}.cls-2{fill:#6d4831;}</style></defs><g id="Layer_2-2"><g><polygon class="cls-1" points="221.67 386.96 222.57 386.74 224.38 385.79 227.25 386.74 233.51 388.2 267.62 389 330.2 345.53 341.93 275.86 392.54 264.13 426.42 247.7 415.93 244.29 364.33 229.26 365.13 223.53 279.65 112.8 209.83 104.59 151.16 117.5 124.17 179.69 84.7 223.53 23.7 247.93 30.71 254.21 105.03 282.32 135.07 353.51 185.24 384.15 212.97 387.8 221.67 386.96"/><polygon class="cls-2" points="299.24 208.32 302.13 217.93 299.72 230.02 292.51 238.36 291.79 243.6 294.92 248.93 298.04 245.56 296.36 241.48 297.08 236.91 301.16 233.31 303.57 230.02 305.25 219.61 305.97 214.32 303.81 208.8 305.25 198.46 314.62 196.54 320.87 200.39 327.25 203.42 327.25 203.43 366.44 224.23 410.43 236.13 428.03 244.79 426.42 247.7 406.54 253.21 377.69 255.29 350.24 251.48 339.33 246.97 322.79 243.37 314.34 249.74 309.77 257.02 311.53 268.79 321.32 278.94 317.47 274.95 310.6 307.27 300.26 332.73 244.35 384.37 227.9 386.74 222.09 386.74 205.64 384.37 149.73 332.73 139.39 307.27 132.33 275.16 138.47 268.79 140.23 257.02 135.66 249.74 127.21 243.37 110.67 246.97 99.76 251.48 72.32 255.29 43.46 253.21 23.58 247.7 21.97 244.79 39.57 236.13 83.56 224.23 117.52 203.29 123.62 200.39 129.87 196.54 139.24 198.46 140.68 208.8 138.52 214.32 139.24 219.61 140.92 230.02 143.32 233.31 147.41 236.91 148.13 241.48 146.45 245.56 149.57 248.93 152.7 243.6 151.98 238.36 144.77 230.02 142.36 217.93 145.25 208.32 152.22 193.66 152.7 178.52 151.01 169.87 157.34 150.6 169.79 147.48 176.17 139.52 174.35 126.02 171.84 123.92 171.85 123.91 176.17 122.63 182.66 130.58 198.05 130.58 206.69 126.45 214.57 122.32 222.24 127.96 222.24 78.33 222.25 78.33 222.25 127.96 229.92 122.32 237.8 126.45 246.44 130.58 261.83 130.58 268.32 122.63 272.64 123.91 270.13 126.02 268.31 139.52 274.69 147.48 287.14 150.6 287.14 150.59 293.47 169.87 291.79 178.52 292.27 193.66 299.24 208.32"/><path class="cls-1" d="m208.43,73.08h27.63l22.93,3.46,27.17,9.71,16.1,14.37,8.26-6.12,10.63-9.35-9.41-10.73-2.43-10.73,3.34-6.92h6.07l12.45,10.04,8.2,6.58,6.68,7.26h17.61l8.2-9.68,7.29-9.7,9.11,1.04,5.47,2.77,2.13,7.62-11.84,17.31-5.77,11.43-20.6,8.31-21-1.04-20.05,11.43.81,1.5,7.67,16.46,2.62,20.09,22.32,35.11,6.39,14.08,8.74,16.16-37.87-20.11h0s-6.38-3.04-6.38-3.04l-6.25-3.84-9.37,1.92-1.44,10.33,2.16,5.53-.72,5.29-1.68,10.41-2.4,3.29-4.08,3.6-.72,4.57,1.68,4.09-3.12,3.36-3.12-5.33.72-5.24,7.21-8.33,2.4-12.1-2.88-9.61-6.97-14.66-.48-15.14,1.68-8.65-6.33-19.27h0s-12.45-3.11-12.45-3.11l-6.38-7.96,1.82-13.5,2.51-2.11-4.33-1.28-6.48,7.95h-15.4l-8.64-4.13-7.89-4.13-7.66,5.63h0s-.01,0-.01,0l-7.67-5.63-7.88,4.13-8.64,4.13h-15.4l-6.48-7.95-4.33,1.28h0s2.5,2.11,2.5,2.11l1.82,13.5-6.38,7.96-12.45,3.12-6.33,19.27,1.68,8.65-.48,15.14-6.97,14.66-2.88,9.61,2.4,12.1,7.21,8.33.72,5.24-3.12,5.33-3.12-3.36,1.68-4.09-.72-4.57-4.09-3.6-2.4-3.29-1.68-10.41-.72-5.29,2.16-5.53-1.44-10.33-9.37-1.92-6.25,3.84-6.1,2.9-32.82,20.24,8.73-16.16,6.39-14.08,16.63-26.16-.11-5.35,3.08-23.69,7.67-16.46.8-1.49-20.06-11.43-21,1.04-20.6-8.31-5.77-11.43-11.84-17.31,2.13-7.62,5.47-2.77,9.11-1.04,7.29,9.7,8.2,9.68h17.61l6.68-7.26,8.2-6.58,12.45-10.04h6.07l3.34,6.92-2.43,10.73-9.41,10.73,10.63,9.35,8.27,6.13,16.1-14.38,27.17-9.71,22.93-3.46Zm-124.02,180.52l15.35-2.13,10.91-4.5,16.54-3.6,8.45,6.37,4.57,7.27-1.76,11.77-6.15,6.38,7.07,32.11,10.34,25.46,55.91,51.65,16.45,2.37h.49l-.02.23-15.49,4.39-33.08,1.88-31.72-6.27-28.75-20.96-20.08-38.96-8.67-26.29-.16-21.43c-6.62-1.55-11.98-2.94-11.98-2.94l-25.81-9.2-17.57-9.2-5.54-10.07,19.86,5.5,28.82,2.08,12.03-1.67v-.24Zm142.84,133.14h.65l16.45-2.37,55.91-51.65,10.34-25.46,6.87-32.32,3.85,3.99-9.79-10.15-1.76-11.77,4.58-7.27,8.45-6.37,16.54,3.6,10.91,4.5,15.17,2.1v.27s11.95,1.66,11.95,1.66l28.82-2.08,19.86-5.5-5.54,10.07-17.57,9.2-25.81,9.2s-5.32,1.38-11.9,2.92l-.16,21.45-8.67,26.29-20.08,38.96-28.75,20.96-31.72,6.27-33.08-1.88-15.49-4.39-.02-.23Z"/></g><rect class="cls-3" width="450" height="450"/></g></svg>