<?xml version="1.0" encoding="UTF-8"?><svg id="Layer_2" xmlns="http://www.w3.org/2000/svg" viewBox="0 0 450 450"><defs><style>.cls-1{fill:#6b666b;}.cls-1,.cls-2{fill-rule:evenodd;}.cls-3{fill:none;}.cls-2{fill:#211c17;}</style></defs><g id="Layer_4"><g><polygon class="cls-1" points="205.81 157.57 200.79 136.71 197.3 126.24 196.46 113.78 199.26 103.22 201.23 94.77 204.59 90.11 204.59 90.12 204.6 90.11 209.11 94.77 225.01 138.48 240.91 94.77 245.42 90.11 245.42 90.12 245.43 90.11 248.78 94.77 250.75 103.22 253.56 113.78 252.72 126.24 249.22 136.71 244.21 157.57 250.83 157.73 258.31 170.18 258.32 170.22 258.32 170.18 258.33 170.2 258.33 170.18 264.51 177.57 268.75 186.66 268.75 203.98 269.38 220.21 268.75 230.38 268.75 241.36 280.56 260 287.75 252.43 303.54 249.82 311.12 244.75 311.13 244.75 311.14 244.75 314.23 248.55 318.53 258.69 323.78 271.79 336.12 289.05 343.98 317.21 323.78 350.74 126.24 350.74 106.03 317.21 113.89 289.05 126.24 271.79 131.48 258.69 135.79 248.55 138.88 244.75 138.89 244.75 138.89 244.75 146.47 249.82 162.27 252.43 169.46 260 181.27 241.36 181.27 230.38 180.63 220.21 181.27 203.98 181.27 186.66 185.5 177.57 191.68 170.18 191.68 170.2 191.69 170.18 199.17 157.73 205.81 157.57"/><polygon class="cls-2" points="191.63 185.81 198.56 164.15 204.59 90.11 213.63 56.87 225 32.7 236.38 56.87 245.42 90.11 251.44 164.15 258.37 185.81 283.97 204.03 313.64 196.76 328.06 186.5 329.11 231.04 345.24 261.12 347.3 292.25 359.93 299.37 358.92 339.41 333.81 362.08 319.2 362.83 290.66 374.27 290.88 376.85 289.58 380.75 287.74 383.1 282.12 383.97 277.47 383.19 276.28 380.27 276.34 380.01 248.46 391.19 225.44 384.47 201.54 391.19 173.66 380.01 173.72 380.27 172.53 383.19 167.88 383.97 162.26 383.1 160.42 380.75 159.12 376.85 159.34 374.27 130.8 362.83 116.19 362.08 91.08 339.41 90.07 299.37 102.7 292.25 104.76 261.12 120.89 231.04 121.94 186.5 136.36 196.76 166.03 204.03 191.63 185.81"/><polygon class="cls-1" points="153.16 377.34 152.58 377.18 128.07 361.74 123.41 353.91 121.91 337.43 139.37 356.51 161.18 362.15 156.3 356.28 145.76 341 150.08 341.62 158.67 339.42 152.97 336.59 145.72 330.28 144.6 328.11 144.6 328.08 140.64 320.36 139.63 309.21 142.63 299.37 149.48 291.28 158.67 285.35 166.06 282.75 181.44 285.68 188.88 294.47 192.95 306.74 192.93 306.74 193.31 307.85 193.79 309.3 194.15 315.12 192.03 326.83 198.41 320.29 200.3 314.22 209.58 319.64 216.54 321.67 225 321.89 233.46 321.67 240.42 319.64 249.7 314.22 251.59 320.29 257.97 326.83 255.85 315.12 256.21 309.3 256.69 307.85 257.07 306.74 257.05 306.74 261.12 294.47 268.57 285.68 283.94 282.75 291.33 285.35 300.52 291.28 307.37 299.37 310.37 309.21 309.36 320.36 305.41 328.08 305.4 328.11 304.28 330.28 297.03 336.59 291.33 339.42 299.92 341.62 304.24 341 293.7 356.28 288.83 362.15 310.62 356.51 328.08 337.43 326.57 353.91 321.92 361.74 297.4 377.18 297.14 377.25 266.89 405.39 248.36 417.3 236.89 417.3 230.71 413.77 239.1 409.36 247.92 401.86 241.3 400.1 240.14 391.77 225 392.82 210.07 391.78 208.91 400.1 202.29 401.86 211.11 409.36 219.5 413.77 213.32 417.3 201.85 417.3 183.32 405.39 153.16 377.34"/></g><rect class="cls-3" width="450" height="450"/></g></svg>