<?xml version="1.0" encoding="UTF-8"?><svg id="Layer_2" xmlns="http://www.w3.org/2000/svg" viewBox="0 0 450 450"><defs><style>.cls-1{fill:#d9c694;}.cls-1,.cls-2{fill-rule:evenodd;}.cls-2{fill:#efdcc2;}.cls-3{fill:none;}</style></defs><g id="Layer_6"><g><polygon class="cls-2" points="198.92 307.78 166.88 301.54 134.78 285.35 118.36 266.49 108.77 236.5 108.77 214.29 158.03 195.25 225 250.61 291.97 195.25 341.23 214.29 341.23 236.5 331.64 266.49 315.22 285.35 283.12 301.54 251.08 307.78 198.92 307.78"/><path class="cls-1" d="m205.02,276.59l-19.16-5.19-18.86-6.14-2.36,6.92-2.02,11.54-2.2,17.18-.73,11-1.28,16.91-.92,8.86-1.47-2.68-1.28-17.45.37-15.03.55-15.3,2.2-15.3,2.87-9.65c-.36-.28-.75-.59-1.14-.91l-8.43,23.3-5.6,42.38,1.63,29.59,2.49,27.68-2.75,3.89-7.37-31.99-1.94-41.53,2.49-35.43,3.98-26.5,1.44-4.31-14-23.92-10.5-9.42-8.13-.99-2.03,3.97-3.39,3.97h-5.42l-4.06-3.97.34-21.82,5.76-28.77,7.79-19.35,16.26-27.78,27.43-23.31,25.74-5.46,10.5-1.98,11.18-.5,10.5-3.47,5.42-6.45,3.05-5.46,3.05-11.9,3.05,11.9,3.05,5.46,5.42,6.45,10.5,3.47,11.18.5,10.5,1.98,25.74,5.46,27.43,23.31,16.26,27.78,7.79,19.35,5.76,28.77.34,21.82-4.06,3.97h-5.42l-3.39-3.97-2.03-3.97-8.13.99-10.5,9.42-14,23.92,1.44,4.31,3.98,26.5,2.49,35.43-1.94,41.53-7.37,31.99-2.75-3.89,2.49-27.68,1.63-29.59-5.6-42.38-8.43-23.3c-.4.32-.78.63-1.14.91l2.87,9.65,2.2,15.3.55,15.3.37,15.03-1.28,17.45-1.47,2.68-.92-8.86-1.28-16.91-.73-11-2.2-17.18-2.02-11.54-2.36-6.92-18.86,6.14-19.16,5.19h-39.97Z"/><path class="cls-2" d="m310.2,215.66l-2.75.97-6.99-.12-4.23-2.13-.09-4.3,2.58-3.11,7.29-.83,4.96,1.23,1.68.78.67,1.59.03,2.34-1.37,2.19-1.77,1.39Zm-172.01,0l2.75.97,6.99-.12,4.23-2.13.09-4.3-2.58-3.11-7.29-.83-4.96,1.23-1.68.78-.66,1.59-.03,2.34,1.37,2.19,1.77,1.39Zm124.43,21.21l-4.73,7.64-3.4,4.86-.18,1.49,1.16.66,2.98-1.09,2.29-2.44,1.67-3.86.22-3.89.26-2.76.44-1.35-.47-.11-.24.85Zm-75.24,0l4.73,7.64,3.4,4.86.18,1.49-1.16.66-2.98-1.09-2.29-2.44-1.67-3.86-.22-3.89-.25-2.76-.44-1.35.47-.11.24.85Z"/></g><rect class="cls-3" width="450" height="450"/></g></svg>