<?xml version="1.0" encoding="UTF-8"?><svg id="Layer_2" xmlns="http://www.w3.org/2000/svg" viewBox="0 0 450 450"><defs><style>.cls-1{fill:#b81418;}.cls-1,.cls-2{fill-rule:evenodd;}.cls-2{fill:#8f272b;}.cls-3{fill:none;}</style></defs><g id="Layer_28"><g><polygon class="cls-1" points="81.42 279.2 95.92 267.12 95.16 260.74 73.4 228.53 91.72 230.21 77.6 214.77 78.74 205.04 85.6 143.43 125.43 151.98 142.58 131 165.86 144.77 192.53 131.66 220.12 125.76 224.95 125.74 225 125.79 225 125.74 229.84 125.76 257.42 131.66 284.09 144.77 307.38 131 324.53 151.98 333.42 148.67 345.63 132.22 342.58 118.13 329.65 87.94 329.33 63.71 332.86 39.57 354.56 18.54 391.4 15.1 368.72 25.95 359.19 44.3 359.47 60.34 367.77 77.86 384.19 102.02 394.12 147.66 386.1 179.54 371.21 205.04 372.36 214.77 358.23 230.21 376.55 228.53 354.8 260.74 354.03 267.12 368.54 279.2 335.71 294.97 337.23 305.71 352.25 315.62 344.39 325.62 334.18 327.86 321.96 347.65 310.51 348.33 301.35 369.13 300.97 377.86 291.81 375.51 278.83 373.83 270.43 384.9 271.96 396.31 262.79 400.34 251.73 410.46 253.1 414.34 259.3 415.87 237.41 423.56 225 434.9 225 434.45 207.64 392.19 158.35 354.05 119.04 304.19 114.25 294.97 81.42 279.2"/><path class="cls-2" d="m341.6,162.44l18.02,21.03,11.63,21.57,14.89-25.5,8.02-31.88-9.93-45.64-16.41-24.16-8.3-17.52-.29-16.04,9.53-18.36,22.68-10.85-36.84,3.45-21.69,21.02-3.53,24.14.32,24.23,12.93,30.19,3.05,14.09-12.22,16.44-8.89,3.31,17.03,10.46Zm-233.2,0l-18.02,21.03-11.63,21.57-14.89-25.5-8.02-31.88,9.93-45.64,16.42-24.16,8.3-17.52.29-16.04-9.53-18.36-22.68-10.85,36.84,3.45,21.69,21.02,3.53,24.14-.32,24.23-12.93,30.19-3.05,14.09,12.22,16.44,8.89,3.31-17.03,10.46Zm116.62,194.77v-.11l14.15-2.1,23.13-8.11,5.11,10.21.3,9.91,6.91-11.11,1.5-15.92,2.77-2.08h-.02s2.6-4.79,2.6-4.79l3.77-17.17,2.65,3.7v.12s2.16,9.77,2.16,9.77l4.08-3.06,9.01-12.02,8.03,4.92,1.28-11.23,3.96-18.61,12.69-3.46,6.64,8.91,1.53,10.74,15.01,9.91-7.86,9.99-10.21,2.24-12.22,19.8-11.45.67-9.16,20.81-.38,8.72-9.16-2.35-12.98-1.68-8.4,11.07,1.53,11.41-9.16,4.03-11.07,10.12,1.38,3.88,6.2,1.53-21.89,7.69-12.41,11.34-.05-.39-.04.39-12.4-11.34-21.89-7.69,6.2-1.53,1.38-3.88-11.07-10.12-9.16-4.03,1.53-11.41-8.4-11.07-12.98,1.68-9.16,2.35-.38-8.72-9.16-20.81-11.45-.67-12.22-19.8-10.21-2.24-7.86-9.99,15.01-9.91,1.53-10.74,6.65-8.91,12.69,3.46,3.96,18.61,1.28,11.23,8.03-4.92,9.01,12.02,3.95,2.96,2.16-9.79,2.65-3.7,3.78,17.22,2.48,4.57,3,2.25,1.5,15.92,6.91,11.11.3-9.91,5.11-10.21,23.13,8.11,14.15,2.1.04.11Z"/></g><rect class="cls-3" width="450" height="450"/></g></svg>