<?xml version="1.0" encoding="UTF-8"?><svg id="Layer_2" xmlns="http://www.w3.org/2000/svg" viewBox="0 0 450 450"><defs><style>.cls-1{fill:#f7e1e3;}.cls-1,.cls-2{fill-rule:evenodd;}.cls-2{fill:#774436;}.cls-3{fill:none;}</style></defs><g id="Layer_25"><g><polygon class="cls-1" points="268.06 134.94 294.39 141.07 305.19 184.62 318.02 184.62 325.56 164.42 325.57 164.38 329.28 163.39 337.67 165.99 341.62 183.52 339.37 187.04 331.99 196.98 324.05 210.37 323.04 215.33 319.59 221.46 313.05 223.92 309.07 242.86 298.92 262.09 244.01 301.11 227.86 302.9 222.14 302.9 205.99 301.11 151.08 262.09 140.93 242.86 136.95 223.92 130.41 221.46 126.96 215.33 125.95 210.37 118 196.98 110.63 187.04 108.37 183.52 112.33 165.99 120.72 163.39 124.58 164.42 132.13 184.62 144.96 184.62 155.76 141.07 182.08 134.94 268.06 134.94"/><path class="cls-2" d="m225,134.94l-34.05,6.28-22.26,8.74-11.02,14.77-12.62,19.89v-.35s-.02.07-.02.07l.05.59,10.3,26.42,4.93,8.39,4.13,10.12,13.2,13.3,5.97-1.45,7.85-3.33,11.98-2.26,11.72,2.13,9.85,2.4,9.85-2.4,11.72-2.13,11.98,2.26,7.85,3.33,5.97,1.45h0s13.2-13.29,13.2-13.29l4.13-10.12,4.93-8.39,10.42-26.72h.15l-.22-.9-.02.9-12.62-19.89-11.02-14.77-22.26-8.74-34.05-6.28Zm38.19,124.35l-2.65.38-10.65-.53-10.52-1.6-8.92-1.86-5.45-1.91-5.45,1.91-8.92,1.86-10.52,1.6-10.65.53-2.65-.38v10.83l22.14,9.81h32.1l22.14-9.81v-10.83Zm-142.47-95.91l-8.39,2.6-2.52,11.16,1.11-12.65,4.31-7.04,4.37-29.54,4.15-13.31,17.71-23.03,22.43-15.82,25.97-7.34,21.93-2.61h26.42l21.93,2.61,25.97,7.34,22.43,15.82,17.71,23.03,4.15,13.31,4.37,29.54,4.31,7.04,1.11,12.65-2.52-11.16-8.39-2.6-3.72.99v.04s-7.55,20.2-7.55,20.2h-.15l9.01,20.99,5.12-8.63,6.68-9.01-.05,30.95,5.56,25.15,11.2,17.85-5.69,13-8.08-6.91,6.46,19.91,17.47,37.79,3.66,14.22-2.03,5.28-6.5,3.25-13-18.69,3.66,15.44,5.28,10.97.81,19.91-6.91,4.47-8.9-.41-7.76-8.94-7.61-9.75v15.44l-10.67,6.09-18.28,1.22-16.66-8.94-7.72,3.25-11.38,1.22-11.78-5.69-5.69-10.97-4.05-.19-5.64,15.24-9.31,3.83-9.31-3.83-5.64-15.25-4.19.2-5.69,10.97-11.78,5.69-11.38-1.22-7.72-3.25-16.66,8.94-18.28-1.22-10.67-6.09v-15.44l-7.61,9.75-7.76,8.94-8.9.41-6.91-4.47.81-19.91,5.28-10.97,3.66-15.44-13,18.69-6.5-3.25-2.03-5.28,3.66-14.22,17.47-37.79,6.46-19.91-8.08,6.91-5.69-13,11.2-17.85,5.56-25.15-.05-30.95,6.68,9.01,5.12,8.63,9.01-20.99-7.55-20.2-3.86-1.03Z"/></g><rect class="cls-3" width="450" height="450"/></g></svg>