<?xml version="1.0" encoding="UTF-8"?><svg id="Layer_2" xmlns="http://www.w3.org/2000/svg" viewBox="0 0 450 450"><defs><style>.cls-1{fill:#00b5f1;}.cls-1,.cls-2{fill-rule:evenodd;}.cls-2{fill:#c4a7c4;}.cls-3{fill:none;}</style></defs><g id="Layer_15"><g><polygon class="cls-1" points="317.99 309.01 306.96 336.61 247.3 392.62 229.75 395.19 223.55 395.19 206 392.62 146.34 336.61 135.31 309.01 130.99 281.81 123.88 278.29 130.99 281.81 127.1 244.98 117.55 196.4 113.35 194.92 117.55 196.4 116.65 151 120.25 122.11 135.89 91.81 160.26 69.1 188.48 58.57 212.3 54.81 241 54.81 264.82 58.57 293.04 69.1 317.4 91.81 333.04 122.11 336.65 151 335.75 196.17 326.17 244.98 322.28 281.81 322.31 281.83 322.31 281.81 317.99 309.01"/><polygon class="cls-2" points="222.59 311.07 221.8 300.74 221.8 251.02 220.48 234.97 215.49 222.81 206.37 212.88 191.8 201.31 180.35 199.04 169.7 187.68 165.92 170.65 155.98 168.2 150.43 160.21 146.23 147.8 146.37 129.02 151.99 114.09 164.69 99.14 179.77 90.36 198.08 82.97 216.76 80.32 226.65 80.45 236.54 80.32 255.22 82.97 273.53 90.36 288.61 99.14 301.3 114.09 306.92 129.02 307.06 147.8 302.87 160.21 297.31 168.2 287.37 170.65 283.59 187.68 272.94 199.04 261.5 201.31 246.92 212.88 237.81 222.81 232.82 234.97 231.5 251.02 231.5 300.74 230.7 311.07 226.65 323.61 222.59 311.07"/></g><rect class="cls-3" width="450" height="450"/></g></svg>