<?xml version="1.0" encoding="UTF-8"?><svg id="Layer_2" xmlns="http://www.w3.org/2000/svg" viewBox="0 0 450 450"><defs><style>.cls-1{fill:#f8e4dc;}.cls-1,.cls-2{fill-rule:evenodd;}.cls-2{fill:#e6deaf;}.cls-3{fill:none;}</style></defs><g id="Layer_24"><g><polygon class="cls-1" points="231.12 384.08 218.88 384.08 196.91 379.12 158.74 332.48 145.37 307.15 138.58 284.87 112.82 259.12 96.37 227.36 90.9 204.91 90.64 186.84 81.11 164.57 72.2 129.99 73.35 124.07 110.66 182.84 113.93 151.9 121.44 122.4 135.44 98.1 156.63 73.56 177.07 57.06 197.35 47.26 211.87 44.52 238.13 44.52 252.65 47.26 272.93 57.06 293.37 73.56 314.56 98.1 328.56 122.4 336.07 151.9 339.34 182.84 376.65 124.07 377.8 129.99 368.89 164.57 359.36 186.84 359.1 204.91 353.63 227.36 337.18 259.12 311.42 284.87 304.62 307.15 291.26 332.48 253.09 379.12 231.12 384.08"/><polygon class="cls-2" points="208.9 144.7 165.43 169.05 134.81 208.69 139.5 265.5 148.86 310.11 160.4 349.34 149.93 385.77 137.75 405.48 130.25 394.66 127.96 359.73 125.36 350.11 118.3 351.07 99.06 314.93 100.49 235.32 109.41 252.53 110.66 182.84 113.93 151.9 121.44 122.4 135.44 98.1 156.63 73.56 177.07 57.06 197.35 47.26 211.87 44.52 224.84 44.52 224.84 45.18 225.16 44.52 238.13 44.52 252.65 47.26 272.93 57.06 293.37 73.56 314.56 98.1 328.56 122.4 336.07 151.9 339.34 182.84 340.59 252.53 349.51 235.32 350.94 314.93 331.7 351.07 324.64 350.11 322.04 359.73 319.75 394.66 312.25 405.48 300.07 385.77 289.6 349.34 301.14 310.11 310.5 265.5 315.19 208.69 284.57 169.05 241.1 144.7 225 139.05 208.9 144.7"/></g><rect class="cls-3" width="450" height="450"/></g></svg>