<?xml version="1.0" encoding="UTF-8"?><svg id="Layer_2" xmlns="http://www.w3.org/2000/svg" viewBox="0 0 450 450"><defs><style>.cls-1{fill:#d8ecf9;}.cls-1,.cls-2{fill-rule:evenodd;}.cls-2{fill:#77bb72;}.cls-3{fill:none;}</style></defs><g id="Layer_20"><g><polygon class="cls-1" points="214.61 341.26 186.37 339.22 151.02 324.16 108.93 300.95 76.76 273.27 67.04 264.72 66.1 257.53 67.78 240.69 72.07 228.5 225.16 256.73 378.25 228.5 382.53 240.69 384.22 257.53 383.28 264.72 373.55 273.27 341.38 300.95 299.3 324.16 263.95 339.22 235.71 341.26 214.61 341.26"/><polygon class="cls-2" points="208.88 268.03 169.91 264.63 140 257.15 89.7 240.61 76.78 232.46 73.61 228.5 74.29 224.75 77.46 216.37 80.15 207.31 74.94 196.88 69.05 183.51 66.55 166.97 66.1 155.64 72.9 137.74 83.32 123.02 88.53 117.8 99.86 110.78 122.75 108.74 142.01 113.73 154.92 121.2 159.68 118.71 187.32 109.87 210.78 109.87 220.73 112.14 229.58 112.14 239.54 109.87 262.99 109.87 290.64 118.71 295.39 121.2 308.31 113.73 327.57 108.74 350.45 110.78 361.78 117.8 367 123.02 377.42 137.74 384.22 155.64 383.76 166.97 381.27 183.51 375.38 196.88 370.17 207.31 372.86 216.37 376.03 224.75 376.71 228.5 373.54 232.46 360.62 240.61 310.32 257.15 280.41 264.63 241.44 268.03 208.88 268.03"/><path class="cls-1" d="m367.54,123.77l10.7,5.27,8.74,9.7,6.17,16.45.54,11.7-3.69,15.09-6.79,10.62-8.73,6.91-8.12,2.85-8.7.15-11.62-4.5-7.54-6.81-5.79-9.33-3.82-14.28.2-13.26,5.14-14.21,7.93-9.89,8.87-5.43,9.02-1.85,7.49.82Zm-285.07,0l-10.7,5.27-8.74,9.7-6.17,16.45-.54,11.7,3.69,15.09,6.79,10.62,8.73,6.91,8.12,2.85,8.7.15,11.62-4.5,7.54-6.81,5.79-9.33,3.82-14.28-.2-13.26-5.14-14.21-7.93-9.89-8.87-5.43-9.02-1.85-7.49.82Zm116.99,97.13l-3.9,10.44-3.9-.52-.9-4.62,2.52-2.19,2.37-.61,3.82-2.5Zm46.43,0l3.9,10.44,3.9-.52.9-4.62-2.52-2.19-2.37-.61-3.82-2.5Z"/></g><rect class="cls-3" width="450" height="450"/></g></svg>