<?xml version="1.0" encoding="UTF-8"?><svg id="Layer_2" xmlns="http://www.w3.org/2000/svg" viewBox="0 0 450 450"><defs><style>.cls-1{fill:none;}.cls-2{fill:#636c75;}.cls-2,.cls-3{fill-rule:evenodd;}.cls-3{fill:#98979b;}</style></defs><g id="Layer_19"><g><path class="cls-2" d="m392.28,200.93l3.46-.34,5.31-1.97,4.91-4.09,3.22-5.7.95-5.76v-14.3l1.42-1.42h9.81l1.44,1.43v14.28l-.57,3.34-1.73,7.23-3.36,6.45-5.72,6.25-6.62,4.15-5.71,1.95-4.32.78h-2.52l-10.12-10.49,10.15-1.79Zm-334.53,12.28h-2.52l-4.32-.78-5.71-1.95-6.62-4.15-5.72-6.25-3.36-6.45-1.73-7.23-.57-3.34v-14.28l1.44-1.43h9.81l1.42,1.42v14.3l.95,5.76,3.22,5.7,4.91,4.09,5.31,1.97,3.46.34v.03s.03-.03.03-.03l8.79,2.61-8.79,9.68Zm145.48,72.1l-1.74-4.4h-90.23l-4.84-6.32v-10.82l236.8-.72v11.54l-4.84,6.32h-89.88l-1.74,4.4v5.33l-21.77,12.21-21.77-12.21v-5.33Z"/><path class="cls-3" d="m392.25,213.21v11.87l-1.68,1.68h-1.21v17.09l.93,8.86,1.96,6.77v7.46l-6.45.9h.02s-13.85,6.73-13.85,6.73H77.68l-13.85-6.71.09-.05-6.16-.86v-7.46l1.96-6.77.93-8.86v-17.09h-1.21l-1.68-1.68v-11.87l-.03-12.28v-8.31l2.13-3.56,7.47.04v-7.16l.71-8.18,12.1-10.32,23.48-8.89,21.7-2.85h35.94v-3.56l16.37-2.85,19.21-2.49h56.33l19.21,2.49,16.37,2.85v3.56h35.93l21.7,2.85,23.48,8.89,12.1,10.32.71,8.18v7.16l7.47-.04,2.14,3.56v8.31l-.03,12.28Zm-143.69,78.52v5.14l-2.19,5.38-3.17,4.93h-36.4l-3.17-4.93-2.19-5.38v-5.14l.66-1.1h45.8l.66,1.1Z"/><path class="cls-2" d="m213.87,210.11v17.79l-2.97-3.04-1.32-4.87v-7.09l1.32-1.92,2.97-.86Zm22.25-.04h.35l2.59.9,1.35,1.8v7.34l-1.35,4.31-2.59,3.54-.35.18v-18.08Zm-13.7,21.14h5.15v-21.14h-5.15v21.14Zm6.85,0v-21.14h5.15v18.96l-4.25,2.18h-.9Zm-13.7-2.31v-18.83h5.15v21.14h-.9l-4.25-2.31Zm-42.33-33.26l2.11,1.11,2.18,4.4v38.14l-2.19,5.3-2.1,1.01v-49.96Zm-22.25,0v49.96l-2.1-1.01-2.19-5.3v-38.14l2.18-4.4,2.11-1.11Zm148.01,0l2.11,1.11,2.18,4.4v38.14l-2.19,5.3-2.1,1.01v-49.96Zm-22.25,0v49.96l-2.1-1.01-2.19-5.3v-38.14l2.18-4.4,2.11-1.11Zm-105.21-.89v51.67l-.84.41h-4.3v-52.36h4.6l.55.29Zm-12,52.07h5.15v-52.36h-5.15v52.36Zm-1.7-52.36v52.36h-4.3l-.84-.41v-51.67l.55-.29h4.6Zm139.46.29v51.67l-.84.41h-4.3v-52.36h4.6l.55.29Zm-12,52.07h5.15v-52.36h-5.15v52.36Zm-1.7-52.36v52.36h-4.3l-.84-.41v-51.67l.55-.29h4.6Z"/></g><rect class="cls-1" width="450" height="450"/></g></svg>