<?xml version="1.0" encoding="UTF-8"?><svg id="Layer_2" xmlns="http://www.w3.org/2000/svg" viewBox="0 0 450 450"><defs><style>.cls-1{fill:#9ec1bd;}.cls-1,.cls-2{fill-rule:evenodd;}.cls-3{fill:none;}.cls-2{fill:#5f6a68;}</style></defs><g id="Layer_13"><g><polygon class="cls-1" points="216.11 386.12 198.08 383.86 178.56 381.23 157.91 373.73 139.5 362.99 131.53 355.39 128.92 350.78 128 348.01 127.53 344.32 126.61 340.63 125.53 334.94 122.92 326.48 113.23 299.41 101.85 265.73 96.01 244.04 94.01 225.59 93.08 210.98 93.39 198.06 94.31 189.9 97.54 175.76 100.47 166.99 104.93 156.38 109.85 146.84 117.23 134.54 122.3 127.31 124.77 124.76 124.77 116.39 118.34 112.61 114.56 109.08 112.67 104.16 113.3 99.44 115.76 95.34 121.05 91 126.03 88.86 133.02 87.41 135 96.62 140.26 100.75 156.03 107.13 175.93 110.51 192.45 111.26 225 112.01 257.55 111.26 274.07 110.51 293.97 107.13 309.74 100.75 315 96.62 316.98 87.41 323.97 88.86 328.95 91 334.24 95.34 336.69 99.44 337.32 104.16 335.43 109.08 331.65 112.61 325.23 116.39 325.23 124.76 327.69 127.31 332.77 134.54 340.15 146.84 345.07 156.38 349.53 166.99 352.46 175.76 355.69 189.9 356.61 198.06 356.92 210.98 355.99 225.59 353.99 244.04 348.15 265.73 336.77 299.41 327.08 326.48 324.46 334.94 323.39 340.63 322.47 344.32 322 348.01 321.08 350.78 318.47 355.39 310.5 362.99 292.09 373.73 271.44 381.23 251.91 383.86 233.89 386.12 216.11 386.12"/><path class="cls-2" d="m137.28,98.91l-2.28-2.3-1.98-9.21-1.12-5.07-1.73-6.92,1.54-2.31,8.07-4.04,15.19-2.69,21.72-1.54,21.72-.77,17.69-.19h17.78l17.69.19,21.72.77,21.72,1.54,15.19,2.69,8.07,4.04,1.54,2.31-1.73,6.92-1.12,5.07-1.98,9.21-5.26,4.13-15.77,6.38-19.9,3.38-49.07,1.5-49.07-1.5-19.9-3.38-15.77-6.38-2.98-1.83Zm180.06,43.3l-3.36-3.06-3.17-1.52-2.9.09-4.8,1.56-3.95,2.81-2.59,4.38.33,3.73,2.17,3.31,3.42.98s4.21-3.07,4.58-3.65c.37-.58,2.44-3.83,2.44-3.83l2.33-2,1.94-.91,2.55.96,3.52,1.27-2.49-4.1Zm0,6.39l-2.39.35-1.72.81-.99,1.27-1.08,2.59-.29,2.67.81,2.65,1.58,1.18,2.07.25,1.59-1.11s.28-2.87.18-3.23c-.1-.36-.64-2.39-.64-2.39l.04-1.7.33-1.15,1.28-.74,1.74-1.04-2.49-.39Zm-146.72,18.72l.74,12.63h-5.89s7.45,10.29,7.45,10.29l8.68,4.86,3.15-.5,2.21-2.43.56-2.8-3.43-11.5-6.93-7.39-6.55-3.15Zm-40.77,21.93l10.18,7.51,3.21-4.94,4.56,11.86-.67,9.93-2.14,2.36-3.24.53-2.65-1.06-7.77-9.15-2.41-9.84.93-7.2Zm87.37,179.2l-15.77-2.03-17.09-2.37-18.07-6.76-16.11-9.66-6.97-6.85-2.29-4.15-.81-2.49-.4-3.32-.81-3.32-.94-5.12-2.29-7.62-8.48-24.38-9.96-30.33-5.11-19.53-1.75-16.62-.81-13.16.27-11.63.81-7.34,2.83-12.74,6.46-17.45,4.26-7.81,6-3.4,7.65-4.93,8.09-2.58,9.02-.21,8.63,3.22,11.12-1.5,12.39,1.57,13.67,5.18,20.28,9.01,19.9,21.4,13.43,14.33,16.24,7.45,14.65-.4,14.95-5.84,10.2-7.65,11.15-11.88,4.26-6.22.36-6.68-1.58-13.17,5.52,10.11,6.46,17.45,2.83,12.74.81,7.34.27,11.63-.81,13.16-1.75,16.62-5.11,19.53-9.96,30.33-8.48,24.38-2.29,7.62-.94,5.12-.81,3.32-.4,3.32-.81,2.49-2.29,4.15-6.97,6.85-16.11,9.66-18.07,6.76-17.09,2.37-15.77,2.03h-15.56Z"/></g><rect class="cls-3" width="450" height="450"/></g></svg>