<?xml version="1.0" encoding="UTF-8"?><svg id="Layer_2" xmlns="http://www.w3.org/2000/svg" viewBox="0 0 450 450"><defs><style>.cls-1{fill:#f8e2e4;}.cls-1,.cls-2{fill-rule:evenodd;}.cls-3{fill:none;}.cls-2{fill:#5a3023;}</style></defs><g id="Layer_23"><g><path class="cls-1" d="m120.99,258.55s18.9,0,14.84-7.76l29.7-22.48,60.59-6.91,63.16,15.6,35.14,23.55c-.05.26,9.83-2.41,12.61,2.61l-5.1,3.7-4.51,3.34-5.47-1.54,3.36,15.99-1.92,3.21-6.27,9.07-6.76,12.21-.86,4.52-2.94,5.6-5.56,2.24-3.38,17.28-8.64,17.54-46.7,35.59-13.74,1.63h-4.86l-13.74-1.63-46.7-35.59-8.64-17.54-3.38-17.28-5.56-2.24-2.94-5.6-.86-4.52-6.76-12.21-6.27-9.07-1.92-3.21,2.12-10.11-8.06-16.01Z"/><path class="cls-2" d="m160.61,274.56h.36l58.37-3.44h5.64,0s.05,0,.05,0h5.64l58.37,3.44h2.73l2.57,11.11h.02l-8.64,42.57-19.29,10.81h-.01s-80.57,0-80.57,0l-19.29-10.81-8.37-41.92-.07-.91,2.51-10.86Zm90.17,92.81l1.1-4.93-3.08-4.83-22.69-2.76-22.69,2.76-3.08,4.83,1.1,4.93,11.01,5.23h27.3l11.01-5.23Zm-121.77-121.18l17.42-53.07,54.36-56.12,24.24-38.41,6.23-24.59-6.23-21.36-17.72-3.34-18.23,7.38,12.43-19.7,28.57-11.34,33.96,20.19,25.17,47.5,17.57,95.71,19.95,57.16.09.24,40.02,1.62,8.75-1.86h11.19l3.26,3.68v12.52l-11.53,9-18.97.85-34.85,2.31h-1.52l-1.24-5.89-7.14-2.37-3.16.91v.04s-.86,2.47-.86,2.47l-1.52,4.84h-.17l-3.87,11.11h-.12l-3.28,28.72,4.05,49.2-7.93,14.5-5.56,15.45-14.1,12.17-17.94,1.38-19.74,7.37-14.49,9.9-14.49-9.9-19.74-7.37-17.94-1.38-14.1-12.17-5.56-15.45-7.93-14.5,4.05-49.2-3.28-28.72-3.87-11.11h-.16l-1.45-4.62-.94-2.7-3.29-.94-7.14,2.37-1.24,5.89h-3.75l-34.85-2.31-18.97-.85-11.53-9v-12.52l3.26-3.68h11.19l8.75,1.86,45.86-1.86Z"/></g><rect class="cls-3" width="450" height="450"/></g></svg>