<?xml version="1.0" encoding="UTF-8"?><svg id="Layer_2" xmlns="http://www.w3.org/2000/svg" viewBox="0 0 450 450"><defs><style>.cls-1{fill:#411a00;}.cls-1,.cls-2{fill-rule:evenodd;}.cls-3{fill:none;}.cls-2{fill:#140000;}</style></defs><g id="Layer_26"><g><polygon class="cls-1" points="213.62 394 204.19 392.62 203.14 391.63 196.91 390.23 181.23 371.07 144.53 336.61 133.5 309.01 130.08 287.47 112.82 270.22 96.37 238.47 90.9 216.01 90.64 197.94 81.11 175.67 72.2 141.09 73.35 135.18 110.66 193.94 113.93 163 121.44 133.5 135.44 109.2 156.63 84.66 177.07 68.16 197.35 58.36 211.87 55.62 238.13 55.62 252.65 58.36 272.93 68.16 293.37 84.66 314.56 109.2 328.56 133.5 336.07 163 339.34 193.94 376.65 135.18 377.8 141.09 368.89 175.67 359.36 197.94 359.1 216.01 353.63 238.47 337.18 270.22 319.54 287.85 316.18 309.01 305.15 336.61 269.82 369.78 253.09 390.23 246.44 391.73 245.49 392.62 236.97 393.86 231.12 395.19 218.88 395.19 213.62 394"/><path class="cls-2" d="m311.98,225.4l-11.03,66.99-24.64,17.01h-.02s-102.92,0-102.92,0l-24.64-17.01-10.69-65.97-.09-1.43,11.66-62.11,28.6-8.8h93.41l28.6,8.8,11.73,62.52h.02Zm-87.14,99.26l-41.49,5.28,3.35,16.71,12.12,6.45,8.59,9.11h34.88l8.9-9.11,12.12-6.45,3.03-16.71-41.49-5.28Zm-114.18-130.73l4.18-42.94,3.6-28.89,15.64-30.3,24.37-22.72,28.22-10.53,23.82-3.75h28.7l23.82,3.75,28.22,10.53,24.37,22.72,15.64,30.3,3.6,28.89,4.5,42.94-13.45,31.46h-.16l-5.23,56.41-4.32,27.19-11.03,27.6-35.33,33.17-16.73,20.45-7.6,2.39-14.37,2.57h-12.24l-14.69-2.57-7.28-2.39-15.68-19.16-36.7-34.46-11.03-27.6-4.32-27.19-5.23-56.41-13.29-31.46Z"/></g><rect class="cls-3" width="450" height="450"/></g></svg>