<?xml version="1.0" encoding="UTF-8"?><svg id="Layer_2" xmlns="http://www.w3.org/2000/svg" viewBox="0 0 450 450"><defs><style>.cls-1{fill:#19293f;}.cls-1,.cls-2{fill-rule:evenodd;}.cls-2{fill:#e1b48d;}.cls-3{fill:none;}</style></defs><g id="Layer_21"><g><path class="cls-1" d="m225.07,234.93l27.29-1.48,47.43,7.49v20.24s4.87,44.43,4.56,49.78c-.32,5.36-12.92,29.62-12.92,29.62l-23.32,19.54-26.78-11.03-16.19.14h0s-.07,0-.07,0h-.07s0,0,0,0l-16.19-.14-26.78,11.03-23.32-19.54s-12.6-24.26-12.92-29.62c-.32-5.36,4.56-49.78,4.56-49.78v-20.24l47.43-7.49,27.29,1.48Z"/><path class="cls-2" d="m167.64,197.11l6.35-33.83,19.42-5.98h63.44l19.42,5.98,6.32,33.68,16.44-10.82.24-.1v-.04s.62-.22.62-.22l15.73-6.52,20.2-5.61,5.99-.3-.73,11.21-3.33,12.11-1.64,5.01-6.52,12s-6.17,9.2-6.46,10.22c-.29,1.02-4.58,5.92-4.58,5.92l-12.22,7.71-9.51,4.93-6.59,1.48-.18.09-2.94,18.47-7.49,18.75-40.52,38.04-11.92,1.74h-4.21l-11.92-1.74-40.52-38.04-7.49-18.75-2.94-18.47-.18-.09-.05.02-6.7-1.51-9.51-4.93-12.22-7.71s-4.29-4.9-4.58-5.92c-.29-1.02-6.46-10.22-6.46-10.22l-6.52-12,2.03.1,6.73-.79.32-1.28-3.87-2.88-6.85-.15-3.33-12.11-.73-11.21,5.99.3,20.2,5.61,14.85,6.15,1.76.62.04.14,16.61,10.93Z"/><path class="cls-1" d="m251,92.44l19.17,7.15,16.55,15.43,10.62,20.58,2.45,19.62-.61,30.83.11-.04v.04s-2.51,8.89-2.51,8.89h-.11l-3.06,10.81-3.89,9.19-4.76-2.49-.86-6.98-7.92-42.18-19.42-5.98h-63.33l-19.42,5.98-7.92,42.18-.86,6.98-4.76,2.49-3.89-9.19-3.06-10.81h-.11l-2.51-8.89v-.04s.11.04.11.04l-.61-30.83,2.45-19.62,10.62-20.58,16.55-15.43,19.16-7.15,16.18-2.55h19.49l16.18,2.55Zm-25.92,189.79l-19.86,1.03v3.56l11.51,2.76h16.69l11.51-2.76v-3.56l-19.86-1.03Z"/></g><rect class="cls-3" width="450" height="450"/></g></svg>