<?xml version="1.0" encoding="UTF-8"?><svg id="Layer_2" xmlns="http://www.w3.org/2000/svg" viewBox="0 0 450 450"><defs><style>.cls-1{fill:#b66b59;}.cls-1,.cls-2{fill-rule:evenodd;}.cls-2{fill:#f7e1e3;}.cls-3{fill:none;}</style></defs><g id="Layer_27"><g><polygon class="cls-2" points="115.9 196.4 147.6 141.8 225 132.03 305.68 154.08 334.26 196.4 334.26 196.34 338.3 194.92 347.41 198.65 351.7 223.82 349.26 228.87 341.24 243.15 332.61 262.36 331.52 269.48 327.76 278.29 320.66 281.81 316.34 309.01 305.31 336.61 245.65 392.62 228.1 395.19 221.9 395.19 204.35 392.62 144.69 336.61 133.66 309.01 129.34 281.81 122.24 278.29 118.48 269.48 117.39 262.36 108.76 243.15 100.74 228.87 98.3 223.82 102.59 198.65 111.7 194.92 115.9 196.4"/><path class="cls-1" d="m312.14,225.4l-11.03,66.99-24.64,17.01h-.02s-102.92,0-102.92,0l-24.64-17.01-10.69-65.97-.09-1.43,11.66-62.11,28.6-8.8h93.41l28.6,8.8,11.73,62.52h.02Zm-87.14,99.26l-41.49,5.28v18.19l24.05,14.08h34.88l24.06-14.08v-18.19l-41.49-5.28Zm-109.1-128.27l-.9-45.4,3.6-28.89,15.64-30.3,24.37-22.72,28.22-10.53,23.82-3.75h28.7l23.82,3.75,28.22,10.53,24.37,22.72,15.64,30.3,3.6,28.89-.9,45.4.16-.06v.06s-8.2,29.01-8.2,29.01h-.16l-5.23,56.41-4.32,27.19-11.03,27.6-59.66,56.01-17.55,2.57h-6.2l-17.55-2.57-59.66-56.01-11.03-27.6-4.32-27.19-5.23-56.41-8.2-29.01Z"/></g><rect class="cls-3" width="450" height="450"/></g></svg>