<?xml version="1.0" encoding="UTF-8"?><svg id="Layer_2" xmlns="http://www.w3.org/2000/svg" viewBox="0 0 450 450"><defs><style>.cls-1{fill:#009bc4;}.cls-1,.cls-2{fill-rule:evenodd;}.cls-2{fill:#171113;}.cls-3{fill:none;}</style></defs><g id="Layer_12"><g><polygon class="cls-2" points="182.61 281.57 183.15 281.92 182.5 281.92 175.08 284.89 166.5 287.04 148.03 286.21 134.84 279.28 125.93 271.04 110.59 262.29 103.5 255.53 98.06 237.72 90.63 207.21 88.82 190.38 89.31 180.32 93.86 164.31 92.59 161.61 92.59 158.74 94.53 154.6 101.37 141.34 104.41 136.28 116.32 122.43 113.79 121.92 111.91 120.62 111.91 118.3 112.68 114.43 120.67 107.21 120.93 104.12 122.22 100.26 127.37 94.07 144.12 80.93 161.39 72.68 172.47 66.24 172.47 63.4 175.82 60.57 185.36 57.22 197.98 55.67 225 53.28 252.02 55.67 264.64 57.22 274.18 60.57 277.53 63.4 277.53 66.24 288.61 72.68 305.88 80.93 322.63 94.07 327.79 100.26 329.07 104.12 329.33 107.21 337.32 114.43 338.09 118.3 338.09 120.62 336.21 121.92 333.68 122.43 345.59 136.28 348.63 141.34 355.47 154.6 357.41 158.74 357.41 161.61 356.14 164.31 360.69 180.32 361.18 190.38 359.37 207.21 351.95 237.72 346.5 255.53 339.41 262.29 324.07 271.04 315.16 279.28 301.97 286.21 283.5 287.04 274.92 284.89 267.5 281.92 266.85 281.92 267.25 281.66 260.26 274.03 230.56 277.05 186.26 269.5 182.61 281.57"/><path class="cls-1" d="m134.1,203.2l-.21,1,.85.85,1.71.07.35,1.42,1,1.42,1.99.14,1.85-.57,1.9.21.94,2.99.57,3.62-1.51,4.55-1.9,1.78-3.2.29-2.99-.71-2.99-2.56-1.56-1.63-1.85-.07-1.14-1.71.64-3.55.95-3.1,2.04-2.72,2.56-1.71Zm183.24,0l.21,1-.85.85-1.71.07-.35,1.42-1,1.42-1.99.14-1.85-.57-1.9.21-.95,2.99-.57,3.62,1.51,4.55,1.9,1.78,3.2.29,2.99-.71,2.99-2.56,1.56-1.63,1.85-.07,1.14-1.71-.64-3.55-.95-3.1-2.04-2.72-2.56-1.71Zm-102,.06l9.65-.06,9.65.06,8.68,1.58,7.84,3.7,5.94,3.55h2.38l2.28-.53,4.33,2.88,2.26,2.24,4.88,5.66,1.68,5.33.66,7.12,2.77,5.15,1.85,1.71,1.7.21.07.18,1.49,18.29-2.53,9.67-6.56,6.98-7.51,4.93h-2.98l-5.77,5.94-7.59,13.53-8.58,23.26-4.62,24.9-8.41,37.11-2.47,7.09-1.43,2.97-1.43-2.97-2.47-7.09-8.41-37.11-4.62-24.9-8.58-23.26-7.59-13.53-5.77-5.94h-2.98l-7.51-4.93-6.56-6.98-2.53-9.67,1.49-18.29.07-.18,1.7-.21,1.85-1.71,2.77-5.15.66-7.12,1.68-5.33,4.88-5.66,2.26-2.24,4.33-2.88,2.28.53h2.38l5.94-3.55,7.84-3.7,8.68-1.58Z"/><path class="cls-2" d="m250.68,249.18l-3.99,2.4-1.31,3.71-2.85,10.17,2.26-.72,1.19-2.99,1.43-3.71,2.61-.12,2.73-2.75.24-3.47-2.3-2.52Zm-51.35,0l3.99,2.4,1.31,3.71,2.85,10.17-2.26-.72-1.19-2.99-1.43-3.71-2.61-.12-2.73-2.75-.24-3.47,2.3-2.52Z"/></g><rect class="cls-3" width="450" height="450"/></g></svg>