<?xml version="1.0" encoding="UTF-8"?><svg id="Layer_2" xmlns="http://www.w3.org/2000/svg" viewBox="0 0 450 450"><defs><style>.cls-1{fill:#635c5b;}.cls-1,.cls-2{fill-rule:evenodd;}.cls-3{fill:none;}.cls-2{fill:#29201d;}</style></defs><g id="Layer_14"><g><path class="cls-1" d="m209.29,419.01l-14.81-2.39-12.47-2.39-12.47-18.34-.78-36.69-6.23-24.72-10.13-23.93-11.26-19.05-10.62-11.5-7.56-7.32-9.19-5.64s-16.14-3.14-17.77-4.6c-1.63-1.46-11.03-12.8-11.03-12.8l-7.35-15.64-1.02-15.89,3.06-11.5,8.38-13.8,7.56-13.8,2.04-9.41-.41-6.48-1.63-10.45-7.56-10.45-5.72-9.2-4.09-8.36-1.23-15.05-3.47-13.59-4.9-13.38-4.09-5.65-3.47-4.39,2.86-2.72-2.86-6.48-4.09-4.18,1.43-2.3,2.86.63-1.43-6.27-2.66-7.11-4.29-6.9-1.02-6.27,4.13.97,15.96,20.42,14.96,16.33,34.41,34.71,9.48,5.1,25.43,13.27,6.98,10.21,11.58-6.49,32.58-10.38,15.1-1.64h5.01l15.1,1.64,32.58,10.38,11.58,6.49,6.98-10.21,25.43-13.27,9.48-5.1,34.41-34.71,14.96-16.33,15.96-20.42,4.13-.97-1.02,6.27-4.29,6.9-2.65,7.11-1.43,6.27,2.86-.63,1.43,2.3-4.09,4.18-2.86,6.48,2.86,2.72-3.47,4.39-4.09,5.65-4.9,13.38-3.47,13.59-1.23,15.05-4.08,8.36-5.72,9.2-7.56,10.45-1.63,10.45-.41,6.48,2.04,9.41,7.56,13.8,8.38,13.8,3.07,11.5-1.02,15.89-7.35,15.64s-9.4,11.33-11.03,12.8c-1.63,1.46-17.77,4.6-17.77,4.6l-9.19,5.64-7.56,7.32-10.62,11.5-11.26,19.05-10.13,23.93-6.23,24.72-.78,36.69-12.47,18.34-12.47,2.39-14.81,2.39h-31.42Z"/><path class="cls-2" d="m388.75,57.54l-9.94,13.6-17.6,25.07,14.49-12.74,5.7-.84,7.56-10.04-2.86-2.72,2.86-6.48,4.08-4.18-1.43-2.3-2.86.63Zm-327.47,0l9.94,13.6,17.6,25.07-14.49-12.74-5.7-.84-7.56-10.04,2.86-2.72-2.86-6.48-4.09-4.18,1.43-2.3,2.86.63Zm60.37,90.61l-10.6,4.27-5.67,3.44-7.75,13.49-3.53-4.95-4.02-3.94-4.03-.66-5.26,1.87,5.28-6.24,5.28-5.14-4.25-4.53-5.07-2.48,8.81-1.28,6.58.26-4.36-7.7-7.59-6.84,13.7,5.53,7.92,6.5,6.13,1.01-3.6-6.61,6.57,2.45,4.74,3.51,4.46,4.29,2.26.37-5.99,3.39Zm206.74,0l10.6,4.27,5.67,3.44,7.75,13.49,3.52-4.95,4.02-3.94,4.03-.66,5.26,1.87-5.28-6.24-5.28-5.14,4.25-4.53,5.07-2.48-8.81-1.28-6.58.26,4.36-7.7,7.59-6.84-13.7,5.53-7.92,6.5-6.13,1.01,3.6-6.61-6.57,2.45-4.74,3.51-4.46,4.29-2.26.37,5.99,3.39Zm-34.69,90.76l-.95.66-14.24,16.8-3.24,4.88-5.54,8.4-5.92,8.31-3.05,2.04,2.1,3.71,4.39,2.44h9.16l6.49-5.37,4.58-7.62,1.72-6.84-.95-4.88-4.77-1.76,5.1-6.23,4.26-3.91,3.13-.46,2.99,1.23,4.38,7.98-1.92-11.16,1.25-5.05,1.61-3.45,3.07-3.76,8.21-3.91,4.96.78,4.39,2.15-6.11-5.08-4.39-1.37-7.44,2.15-6.8,4.77-2.07-.56-2.31-2.29-2.95-6.52,1.1,8.84-.22,5.07Zm-157.85-10.08l4.39-1.37,7.45,2.15,14.2,9.97,14.24,16.8,3.25,4.88,5.54,8.4,5.92,8.31,3.05,2.04-2.1,3.71-4.39,2.44h-9.16l-6.49-5.37-4.58-7.62-1.72-6.84.95-4.88,4.77-1.76-12.79-15.63-11.07-9.18-8.21-3.91-4.96.78-4.39,2.15,6.11-5.08Zm92.51,125.68l17.84.7,13.28,2.87,1.28,9.93-8.43,6.27-4.6,4.18-4.6,6.53-6.1,2.09h-7.42s-4.59,0-4.59,0h-.02s-7.4,0-7.4,0l-6.1-2.09-4.6-6.53-4.6-4.18-8.43-6.27,1.28-9.93,13.28-2.87,17.84-.7h2.08Z"/></g><rect class="cls-3" width="450" height="450"/></g></svg>