<?xml version="1.0" encoding="UTF-8"?><svg id="Layer_2" xmlns="http://www.w3.org/2000/svg" viewBox="0 0 450 450"><defs><style>.cls-1{fill:#fbe3d7;}.cls-1,.cls-2{fill-rule:evenodd;}.cls-2{fill:#b63b43;}.cls-3{fill:none;}</style></defs><g id="Layer_8"><g><path class="cls-1" d="m389.32,260.72l-1.33-25.92-1.88-24.6-6.31-14.84-5.09-11.31,14.62,4.44,10.19,8.64,7.09,13.63,3.32,16.06-1.88,16.51-6.09,16.29-8.42,8.86-4.71.6.49-8.35Zm-44.85-111.2l-2.33-8.97-9.86-13.74-4.54-9.86-9.75-11.74-9.53-5.76-10.41-1.66-10.55.23,17.94,10.84-9.71-2.98-8.75,1.22-6.42,1.55-10.75,4.43-8.42,8.42-2.11,10.41,8.64,10.75,19.94,16.31,19.06,9.17,14.62,4.21,14.73-2.55,5.76-4.76,2.44-15.51Zm-236.61-8.97l9.86-13.74,4.54-9.86,9.75-11.74,9.53-5.76,10.41-1.66,10.55.23-17.94,10.84,9.71-2.98,8.75,1.22,6.42,1.55,10.75,4.43,8.42,8.42,2.11,10.41-8.64,10.75-19.94,16.31-19.06,9.17-14.62,4.21-14.73-2.55-5.76-4.76-2.44-15.51,2.33-8.97Zm-51.39,127.93l-8.42-8.86-6.09-16.29-1.88-16.51,3.32-16.06,7.09-13.63,10.19-8.64,14.62-4.44-5.09,11.31-6.31,14.84-1.88,24.6-1.33,25.92.5,8.35-4.71-.6Zm88.1,50.02l.88-12.01,17.71-5.57,29.08-5.07,29.08-.68,29.08.68,29.08,5.07,17.71,5.57.88,12.01-2.03,18.26-8.79,14.88-24.51,12.63-25.53,5.29h-31.78l-25.53-5.29-24.51-12.63-8.79-14.88-2.03-18.26Z"/><path class="cls-2" d="m371.66,291.5l-32.82,22.02-21.19,8.45-14.68,3.6-5.75.5.84-7.58-.88-12.01-17.71-5.57-29.08-5.07-29.08-.68-29.08.68-29.08,5.07-17.71,5.57-.88,12.01.74,6.65-12.95-3.18-21.19-8.45-32.82-22.02-17.17-22.44-.5-8.35,1.33-25.92,1.88-24.6,6.31-14.84,5.09-11.31,15.09-21.19,15.09-15.09.67-.67-.63,2.43,2.44,15.51,5.76,4.76,14.73,2.55,14.62-4.21,19.06-9.17,19.94-16.31,8.64-10.75-2.11-10.41-8.42-8.42-10.75-4.43-6.42-1.55-8.75-1.22-9.71,2.98,23.38-14.13,20.5-9.14,27.14-4.43,9.42-.69,9.42.69,27.14,4.43,20.5,9.14,23.38,14.13-9.71-2.98-8.75,1.22-6.42,1.55-10.75,4.43-8.42,8.42-2.11,10.41,8.64,10.75,19.94,16.31,19.06,9.17,14.62,4.21,14.73-2.55,5.76-4.76,2.44-15.51-.63-2.43.67.67,15.09,15.09,15.09,21.19,5.09,11.31,6.31,14.84,1.88,24.6,1.33,25.92-.49,8.35-17.17,22.44Zm-143.48,54.12l3.66-.93,6-2.55,3.36-1.99,1.96-.09,1.4,1.01.67,1.53-.24,1.47-1.39,1.43-2.98,2.28-3.36,1.66-6.62,2.04-3.75.51h-1.9s-1.9,0-1.9,0l-3.75-.51-6.62-2.04-3.36-1.66-2.98-2.28-1.39-1.43-.24-1.47.67-1.53,1.4-1.01,1.96.09,3.36,1.99,6,2.55,3.66.93,3.17.19,3.17-.19Z"/></g><rect class="cls-3" width="450" height="450"/></g></svg>