<?xml version="1.0" encoding="UTF-8"?><svg id="Layer_2" xmlns="http://www.w3.org/2000/svg" viewBox="0 0 450 450"><defs><style>.cls-1{fill:#00663f;}.cls-1,.cls-2{fill-rule:evenodd;}.cls-3{fill:none;}.cls-2{fill:#003a16;}</style></defs><g id="Layer_22"><g><polygon class="cls-1" points="98.32 223.67 102.59 198.65 111.7 194.92 113.29 195.48 115.04 153.13 115 151 118.6 122.11 134.24 91.81 158.61 69.1 186.83 58.57 210.65 54.81 239.35 54.81 263.17 58.57 291.39 69.1 315.76 91.81 331.4 122.11 335 151 334.97 152.65 336.35 195.6 338.3 194.92 347.41 198.65 351.68 223.67 351.7 223.74 351.7 223.79 351.7 223.82 351.69 223.84 348.07 258.16 346.94 267.49 342.17 271.91 331.49 272.9 332.02 327.89 331.98 327.87 331.99 327.89 317.25 346.16 277.84 372.11 246.12 395.19 203.88 395.19 172.16 372.11 132.75 346.16 118.01 327.89 118.54 272.9 107.83 271.91 103.06 267.49 101.93 258.16 98.31 223.84 98.3 223.82 98.3 223.79 98.3 223.74 98.32 223.67"/><path class="cls-2" d="m222.86,64.16l-51.75,20.66-36.82,49.23-4.13,67.09,18.31-62.48,32.59-45.61,41.79-28.89Zm16.27,12.77l-14.24,43.16-28.62,39.9-47.79,52.84,36.91-60.99,29.85-38.5,23.88-36.4Zm2.15-14.86l-43.84,35.66-36.83,40.92-26.32,76.61,40.54-71.05,30.2-38.29,36.24-43.84Zm-16.28,263.17l36.14-.09,7.1,5.24,4.74,5.7-2.23,4.21-17.09,2.49-9.26,2.79h-38.83l-9.26-2.79-17.09-2.49-2.23-4.21,4.74-5.7,7.1-5.24,36.15.09Zm52.21-24.5l20.88-12.05,16.95-34.35,3.64-12.68,3.83.54,5.01,21.66,3.68,9.06.3-.03.5,55-14.86,18.24-39.29,25.98-31.72,23.08h-42.24l-31.72-23.08-39.29-25.98-14.86-18.24.53-54.97h.27l3.68-9.06,5.01-21.66,4.45-.63,3.01,12.76,16.95,34.35,20.88,12.05,52.21,3.33,52.21-3.33Z"/></g><rect class="cls-3" width="450" height="450"/></g></svg>