<?xml version="1.0" encoding="UTF-8"?><svg id="Layer_2" xmlns="http://www.w3.org/2000/svg" viewBox="0 0 450 450"><defs><style>.cls-1{fill:#585f66;}.cls-1,.cls-2{fill-rule:evenodd;}.cls-2{fill:#373f45;}.cls-3{fill:none;}</style></defs><g id="Layer_29"><g><polygon class="cls-2" points="328.72 209.64 337.84 213.37 342.13 238.54 339.68 243.59 331.67 257.87 323.04 277.09 321.94 284.2 318.19 293.01 311.09 296.54 306.77 323.73 295.74 351.33 236.08 407.34 218.53 409.91 212.32 409.91 194.78 407.34 135.12 351.33 124.09 323.73 119.76 296.54 112.66 293.01 108.91 284.2 107.81 277.09 99.18 257.87 91.17 243.59 88.72 238.54 93.02 213.37 102.13 209.64 106.33 211.12 105.43 165.72 109.03 136.83 124.67 106.54 149.04 83.82 177.26 73.29 201.08 69.54 229.78 69.54 253.6 73.29 281.82 83.82 306.18 106.54 321.82 136.83 325.43 165.72 324.53 210.89 324.65 211.08 328.72 209.64"/><path class="cls-1" d="m365.97,182.85l-10.96-8.07-8.07-7.11-4.81-14.42,2.11-17.69,9.23-8.84,10.19-.39,7.88,5.77,1.54,11.15-2.11,11.54s-1.35,15.57-.58,17.5c.77,1.92,4.59,11.47,4.59,11.47l7.72,14.49,2.45,12.95-5.91-11.21-7.88-10.57-5.38-6.54Zm-232.43-65.45l-22.45,2.4-14.7,4.05-17.22,8.26-7.19,13.89-7.13,18.4,1.13,17.65,7.13,18.02,6.06,7.51,10.63,4.4,3.22,1.38,9.11-3.73,4.2,1.48,7.51-6.5,12.65-6.73,14.74-5.1,8.12-2.95,5.86-2.45,20.65-4.22,30.98-11.02,22.48-20.9,12.25-15.02,12.37-25.35,5.93-15.49,3.29-24.73-3.29-29.71-9.86-9.39-15.49-1.88-20.18,7.04-8.92,15.02-3.29,11.73-9.86,16.43-19.71,20.65-14.55,8.92-6.1,1.88-18.39,6.04Zm-36.05,208.6l4.86-12.92,2.95-10.55-3.85-15.28-11.52-14.51-12.7-2.94-8.86,5.04-3.52,9.26,4.82,10.66,8.14,9.07s9.7,13.05,10.11,15.15c.4,2.1,2.41,12.56,2.41,12.56l1.41,16.87,5.04,12.73-1.15-13.03.88-13.51.98-8.62Zm227.83-154.98l21.51,16.49,16.43,14.95,10.79,37.26,2.35,49.64-21.59,23.94-26.28,15.96-37.55,8.45-54.91,10.8-42.71,8.92-21.12,7.98-5.16,9.86,3.59,9.44,18.4,17.27-17.29,16.94-18.77,1.41-22.53-3.75-14.55-10.8-12.2-39.43,5.63-45.06,22.06-27.69,51.16-22.06,58.67-13.61,52.57-9.39,15.96-18.78,10.8-15.96,4.15-11.33.62-31.45Z"/></g><rect class="cls-3" width="450" height="450"/></g></svg>