<?xml version="1.0" encoding="UTF-8"?><svg id="Layer_2" xmlns="http://www.w3.org/2000/svg" viewBox="0 0 450 450"><defs><style>.cls-1{fill:none;}.cls-2{fill:#2c2720;}.cls-2,.cls-3{fill-rule:evenodd;}.cls-3{fill:#7d7266;}</style></defs><g id="Layer_10"><g><polygon class="cls-3" points="204.66 413.83 170.2 406.77 146.58 393.24 133.53 361.47 133.53 318.53 117.97 269.41 102.41 232.06 102.41 197.94 117.97 173.23 117.97 156.76 111.53 145 102.41 141.47 90.08 146.76 78.27 134.28 73.86 114.41 78.57 100.88 89.03 93.82 105.32 95.75 113.62 107.35 123.56 111.47 133.53 96.17 141.35 75 161.54 53.2 186.87 42.35 204.66 36.17 225 42.35 245.34 36.17 263.13 42.35 288.46 53.2 308.65 75 316.47 96.17 326.44 111.47 336.38 107.35 344.68 95.75 360.97 93.82 371.43 100.88 376.14 114.41 371.73 134.28 359.92 146.76 347.59 141.47 338.47 145 332.03 156.76 332.03 173.23 347.59 197.94 347.59 232.06 332.03 269.41 316.47 318.53 316.47 361.47 303.41 393.24 279.8 406.77 245.34 413.83 204.66 413.83"/><path class="cls-2" d="m102.41,141.47l-12.33,5.29-5.57-10.12-2.41-8.64-3.29-5.48-.77-9.82,3.07-4.19h6.91l4.39,3.58.77,6.54-1.32,10.86,1.22,5.65,9.33,6.33Zm245.18,0l12.33,5.29,5.57-10.12,2.41-8.64,3.29-5.48.77-9.82-3.07-4.19h-6.91l-4.39,3.58-.77,6.54,1.32,10.86-1.23,5.65-9.33,6.33Zm-143.92,199.84l-22.15-8.42-9.12-16.14v-23.7l9.12-12.1,12.89-10.44,6.35-21.78-7.38-2.8-6.63-11.74v-17.24l6.63-8.8,9.38-7.59,7.83-26.87,14.41-51.47,14.41,51.47,7.83,26.87,9.38,7.59,6.63,8.8v17.24l-6.63,11.74-7.38,2.8,6.35,21.78,12.89,10.44,9.12,12.1v23.7l-9.12,16.14-22.15,8.42h-42.67Zm66.21,6.65l-8.1,5.51-9.56,10.28-5.35,7.7,5.51-.97,6.16-4.21,5.18-5.02,7.29,1.13,4.38-7.13-.81-7.78-4.7.49Zm-89.76,0l8.1,5.51,9.56,10.28,5.35,7.7-5.51-.97-6.16-4.21-5.18-5.02-7.29,1.13-4.38-7.13.81-7.78,4.7.49Z"/></g><rect class="cls-1" width="450" height="450"/></g></svg>