<?xml version="1.0" encoding="UTF-8"?><svg id="Layer_2" xmlns="http://www.w3.org/2000/svg" viewBox="0 0 450 450"><defs><style>.cls-1{fill:#794e3b;}.cls-1,.cls-2{fill-rule:evenodd;}.cls-2{fill:#edbec5;}.cls-3{fill:none;}</style></defs><g id="Layer_3"><g><polygon class="cls-1" points="347.51 97.45 347.64 97.34 347.68 97.34 347.66 97.34 362.87 175.48 333.24 225.91 333.22 225.92 328.12 265.56 313.1 292.89 286.36 318.42 250.02 343.95 235.91 353.26 225 354.76 214.08 353.26 199.98 343.95 163.64 318.42 136.9 292.89 121.88 265.56 116.77 225.91 96.65 132.65 102.36 97.34 112.28 105.65 156.37 130.08 175.81 137.83 187.13 133.03 201.41 129.34 210.39 128.48 225 128.11 239.61 128.48 248.59 129.34 262.87 133.03 274.19 137.83 293.63 130.08 333.58 107.95 347.51 97.45"/><path class="cls-2" d="m102.36,97.34l21.31,23.75-.77,26.92,6.15,24.99,13.26,16.92-8.71,3.12-10.18,7.36-5.12,13.57-1.53,11.94h-5.41l-12.62-1.2-11.41-5.41-18.62-20.73-15.02-32.44-2.7-21.33,5.71-20.73,15.32-20.73,13.82-8.11,16.52,2.1Zm245.32,0l16.49-2.1,13.82,8.11,15.32,20.73,5.71,20.73-2.7,21.33-15.02,32.44-18.62,20.73-11.42,5.41-12.62,1.2h-5.39l-1.53-11.94-5.12-13.57-10.19-7.36-8.71-3.12,13.26-16.92,6.15-24.99-.77-26.92,21.31-23.75h.02Zm-63.66,131.8l-5.88.25-4.11,4.37-4.42,8.46-.77,9.04,1.45,5.04,3.55,3.23,5.25.76,4.75-3.45,3.45-4.25,1.93-5.74.85-7.66-1.04-5.03-5-5Zm-118.04,0l5.88.25,4.12,4.37,4.42,8.46.77,9.04-1.45,5.04-3.55,3.23-5.25.76-4.75-3.45-3.45-4.25-1.93-5.74-.85-7.66,1.04-5.03,5-5Zm48.11,124.11l-9.07-5.99-8.11-5.48-1.52-6,.61-5.38,2.92-5.84,7.38-5.23,9.69-2.92,9-.49,9,.49,9.69,2.92,7.38,5.23,2.92,5.84.61,5.38-1.52,6-8.11,5.48-9.07,5.99-10.91,1.5-10.91-1.5Z"/></g><rect class="cls-3" width="450" height="450"/></g></svg>