<?xml version="1.0" encoding="UTF-8"?><svg id="Layer_2" xmlns="http://www.w3.org/2000/svg" viewBox="0 0 450 450"><defs><style>.cls-1{fill:#295a3b;}.cls-1,.cls-2,.cls-3{fill-rule:evenodd;}.cls-2{fill:#295a3a;}.cls-3{fill:#aad3b4;}.cls-4{fill:none;}</style></defs><g id="Layer_9"><g><polygon class="cls-1" points="130.74 258.93 125.49 194.74 238.76 175.79 310.66 183.04 324.64 256.89 320.16 263.18 324.64 287.74 323.47 302.37 320.54 314.66 314.11 326.36 305.33 328.99 299.48 326.95 293.62 321.68 287.19 317.58 285.14 318.75 282.21 325.19 278.11 333.68 268.46 336.02 262.9 334.55 259.2 329.96 259.26 330.09 259.71 349.49 256.37 362.38 251.68 371.78 245 376.46 234.74 380.03 215.08 380.03 204.83 376.46 198.14 371.78 193.46 362.38 190.11 349.49 190.55 330.43 187.23 334.55 181.67 336.02 172.01 333.68 167.91 325.19 164.99 318.75 162.94 317.58 156.5 321.68 150.65 326.95 144.8 328.99 136.02 326.36 129.58 314.66 126.66 302.37 125.49 287.74 130.74 258.93"/><path class="cls-3" d="m323.49,238.9l-2.21-8.26,1.05-4.34,3.11,15.84-1.94-3.24Zm-196.98,0l2.21-8.26-1.04-4.34-3.11,15.84,1.94-3.24Zm93.91,104.39l-11.14-2.95-18.68-7.21-13.11-8.52-19.34-18.68-12.45-16.39-8.19-16.06-3.81-11.97.34,9.69-3.6,19.67-4.73,4.57-8.52.32-4.68-6.05.7-17.41-18.92,11.67-9.83,6.9h-4.26l-4.3-1.33-4.88-10.48,7.21-16.06,16.39-8.52,7.84-5.92,6.76-8.77,4.91-11.26,3.2-15.58,1.33-17.32,3.49-8.99,3.57-18.35-4.22-10.16,4.22-11.8,9.22-8.85,15.69-8.2,17.37-14.42,15.86-1.2,25.74-4.85,9.81-5.61,11.93,3.85,11.73-.39,15.88,4.37,23.07,3.85,17.37,14.42,15.69,8.2,9.22,8.85,4.22,11.8-4.22,10.16,3.57,18.35,3.49,8.99,1.33,17.32,3.2,15.58,4.91,11.26,6.76,8.77,7.84,5.92,16.39,8.52,7.21,16.06-4.88,10.48-4.3,1.33h-4.26l-9.83-6.9-18.92-11.67.7,17.41-4.68,6.05-8.52-.32-4.73-4.57-3.6-19.67.34-9.69-3.81,11.97-8.19,16.06-12.45,16.39-19.34,18.68-13.11,8.52-18.68,7.21-11.14,2.95h-9.15Z"/><polygon class="cls-2" points="198.44 212.09 199.09 203.31 199.75 197.98 196.21 212.09 192.28 217.13 189.35 218.86 183.89 220.73 179.43 219.86 174.45 215.55 170.78 209.79 169.21 203.88 168.55 194.53 171.04 184.31 172.75 178.98 166.06 189.34 160.95 197.26 156.27 200.77 152.68 206.31 143.66 231.54 141.66 245.31 135.1 261.52 126.96 278.08 118.27 295.78 116.26 315.11 117.6 330.19 123.95 348.54 121.28 361 116.93 363.62 108.58 362.63 96.22 356.73 87.19 350.51 75.5 343.3 73.16 335.76 75.17 327.57 84.86 310.85 96.22 293.81 110.92 267.92 117.93 249.57 118.6 239.8 111.59 247.93 101.9 256.45 88.53 262.35 78.17 275.46 76.17 289.55 74.5 296.11 69.15 298.07 60.8 295.12 53.11 285.29 49.1 277.42 49.1 267.92 53.45 258.74 65.48 245.96 78.84 239.8 92.21 232.85 102.9 225.97 106.57 220.73 96.88 214.17 90.2 202.38 87.53 176.81 90.87 151.9 97.89 127.33 108.91 106.68 121.28 89.96 139.65 77.84 161.37 69.97 171.39 70.63 177.52 75.87 184.07 85.7 186.76 98.16 187.52 106.31 192.11 104.06 207.81 98.48 220.51 98.16 235.67 98.16 248.37 98.48 262.74 103.58 263.24 98.16 265.93 85.7 272.48 75.87 278.61 70.63 288.63 69.97 310.35 77.84 328.73 89.96 341.09 106.68 352.11 127.33 359.13 151.9 362.47 176.81 359.8 202.38 353.12 214.17 343.43 220.73 347.1 225.97 357.79 232.85 371.16 239.8 384.52 245.96 396.55 258.74 400.9 267.92 400.9 277.42 396.89 285.29 389.2 295.12 380.85 298.07 375.5 296.11 373.83 289.55 371.83 275.46 361.47 262.35 348.1 256.45 338.42 247.93 331.4 239.8 332.07 249.57 339.08 267.92 353.78 293.81 365.15 310.85 374.83 327.57 376.84 335.76 374.5 343.3 362.81 350.51 353.78 356.73 341.42 362.63 333.07 363.62 328.73 361 326.05 348.54 332.4 330.19 333.74 315.11 331.73 295.78 323.05 278.08 314.9 261.52 308.34 245.31 306.34 231.54 297.32 206.31 282.76 178.77 284.77 183.88 287.63 194.53 286.97 203.88 285.4 209.79 281.73 215.55 276.75 219.86 272.29 220.73 266.84 218.86 263.9 217.13 259.97 212.09 256.43 197.98 257.09 203.31 257.74 212.09 256.83 216.55 253.55 219 247.37 220.73 239.76 222.12 216.42 222.12 208.81 220.73 202.63 219 199.36 216.55 198.44 212.09"/></g><rect class="cls-4" width="450" height="450"/></g></svg>