<?xml version="1.0" encoding="UTF-8"?><svg id="Layer_2" xmlns="http://www.w3.org/2000/svg" viewBox="0 0 450 450"><defs><style>.cls-1{fill:#f0cb9c;}.cls-1,.cls-2{fill-rule:evenodd;}.cls-2{fill:#702c35;}.cls-3{fill:none;}</style></defs><g id="Layer_17"><g><polygon class="cls-1" points="213.26 374.9 200.46 372.55 192.4 369.8 185.34 364.16 181.49 359.08 180.34 353.42 175.08 347.21 170.68 341.01 168.88 333.57 168.23 328.35 158.03 315.12 146.34 296.43 133.96 279.69 120.55 262.17 111.96 241.92 106.8 220.12 106.11 201.82 105.08 176.12 99.58 163.27 96.83 150.42 96.49 136.01 98.55 125.5 101.3 115.76 109.55 113.43 116.09 118.49 127.09 123.16 137.85 109.82 150.98 99.14 168.77 87.89 186.85 80.58 201.23 77.13 214.79 74.99 225 74.8 235.21 74.99 248.77 77.13 263.15 80.58 281.23 87.89 299.02 99.14 312.15 109.82 322.91 123.16 333.92 118.49 340.45 113.43 348.7 115.76 351.45 125.5 353.51 136.01 353.17 150.42 350.42 163.27 344.92 176.12 343.89 201.82 343.2 220.12 338.04 241.92 329.45 262.17 316.04 279.69 303.66 296.43 291.97 315.12 281.77 328.35 281.12 333.57 279.32 341.01 274.92 347.21 269.66 353.42 268.51 359.08 264.66 364.16 257.6 369.8 249.54 372.55 236.74 374.9 225 375.2 213.26 374.9"/><path class="cls-2" d="m241.96,88.09l-2.61,1.66.06,3.57,2.09,1.6,1.5.04,1.21-1.32.33-2.73-2.59-2.81Zm-34.07,0l2.61,1.66-.06,3.57-2.09,1.6-1.5.04-1.21-1.32-.33-2.73,2.59-2.81Zm38.92,23.45l2.81-2.04.37-4.69-1.9-2.21-1.5-.13-1.37,1.67-.66,3.56,2.26,3.83Zm-43.77,0l-2.81-2.04-.37-4.69,1.9-2.21,1.5-.13,1.37,1.67.66,3.56-2.26,3.83Zm89.9-1.75l-1.34,3.63,2.23,5.32,2.86,1.49,1.38-.6.29-2.52-1.37-4.24-4.06-3.08Zm-136.03,0l1.34,3.63-2.23,5.32-2.87,1.49-1.38-.6-.29-2.52,1.37-4.24,4.06-3.08Zm81.89,5.16l-3.75,3.68-.38,7.86,2.63,3.51,2.04.07,1.82-2.93.8-6.02-3.16-6.17Zm-27.74,0l3.75,3.68.38,7.86-2.63,3.51-2.04.07-1.82-2.93-.8-6.02,3.16-6.17Zm82.54,25.98l1.83-3.41-1.47-5.58-2.63-1.87-1.45.4-.63,2.46.77,4.39,3.59,3.61Zm-137.35,0l-1.83-3.41,1.47-5.58,2.63-1.87,1.45.4.64,2.46-.77,4.39-3.59,3.61Zm87.42-4.43l-3.43,2.61-.25,5.77,2.48,2.65,1.88.11,1.65-2.11.67-4.4-3-4.62Zm-37.48,0l3.43,2.61.25,5.77-2.48,2.65-1.88.11-1.65-2.11-.67-4.4,3-4.62Zm46.61,15.6l-3.59,2.93-.67,6.69,2.27,3.14,1.86.18,1.79-2.4.98-5.09-2.64-5.45Zm-55.74,0l3.59,2.93.67,6.69-2.27,3.14-1.86.18-1.79-2.4-.98-5.09,2.64-5.45Zm37.86,5.11l-4.24,3.99.5,7.78,3.73,3.2,2.56-.13,1.92-3.07.25-6.01-4.72-5.77Zm-19.97,0l4.24,3.99-.5,7.78-3.73,3.2-2.56-.13-1.92-3.07-.25-6.01,4.72-5.77Zm33.07,15.3l-1.34,3.63,2.23,5.32,2.87,1.49,1.38-.6.29-2.52-1.37-4.24-4.06-3.08Zm-46.16,0l1.34,3.63-2.23,5.32-2.87,1.49-1.38-.6-.29-2.52,1.37-4.24,4.06-3.08Zm29.6,10.44l-2.64,5.2,3.11,7.15,4.6,1.74,2.36-.99.76-3.54-1.79-5.74-6.39-3.83Zm-13.03,0l2.64,5.2-3.11,7.15-4.6,1.74-2.36-.99-.76-3.54,1.79-5.74,6.39-3.83Zm-58.64,11.17l-2.69,3.78-6.15.67-7.55-1.25-2.43-1.75,4.48-3.83,4.1.17,3.84-.33,5.25.92,1.15,1.63Zm130.31,0l2.69,3.78,6.15.67,7.55-1.25,2.43-1.75-4.48-3.83-4.1.17-3.84-.33-5.25.92-1.15,1.63Zm-101.25,18.55l-3.84-3.69-12.03-4.75-10.37-3.08-1.54-1.92,3.07-5.12h3.71l9,3.53,12.38,5.5,6.91,7.24.77,3.66-4.23,2-2.05-.67-1.79-2.72Zm72.19,0l3.84-3.69,12.03-4.75,10.37-3.08,1.54-1.92-3.07-5.12h-3.71l-9,3.53-12.38,5.5-6.91,7.24-.77,3.66,4.22,2,2.05-.67,1.79-2.72Zm7.2,33.49l-1.96-8.68,1.02-12.49,9.19-6.01,11.61-4.08,10.97-2.81,6.64-3.44-4.72,9.31-4.72,9.06-8.93,8.8-8.93,3.32-10.16.26v6.76Zm-86.42,0l1.96-8.68-1.02-12.49-9.19-6.01-11.61-4.08-10.97-2.81-6.63-3.44,4.72,9.31,4.72,9.06,8.93,8.8,8.93,3.32,10.16.26v6.76Zm41.24,92.51l-3.7,1.28-6.31,3.06-26.99,7.91-5.68,2.49-2.21-2.61,6.75-2.81,28.14-8.93,7.58-5.1,1.4-5.23.78-12.49-2.35-.4-5.23-2.61-4.18-5.03-2.81-2.88-4.31.07-2.02-.26-.85-2.29.98-2.35,4.18-5.23,3.92-.33,5.55,2.29,6.53,2.29h5.58l6.53-2.29,5.55-2.29,3.92.33,4.18,5.23.98,2.35-.85,2.29-2.03.26-4.31-.07-2.81,2.88-4.18,5.03-5.23,2.61-2.35.4.78,12.49,1.4,5.23,7.58,5.1,28.14,8.93,6.75,2.81-2.21,2.61-5.68-2.49-26.99-7.91-6.31-3.06-3.7-1.28h-3.94Z"/></g><rect class="cls-3" width="450" height="450"/></g></svg>