<?xml version="1.0" encoding="UTF-8"?><svg id="Layer_2" xmlns="http://www.w3.org/2000/svg" viewBox="0 0 450 450"><defs><style>.cls-1{fill:none;}.cls-2{fill:#729376;}.cls-2,.cls-3{fill-rule:evenodd;}.cls-3{fill:#dbb385;}</style></defs><g id="Layer_18"><g><polygon class="cls-3" points="213.85 387.43 201.86 385.07 172.67 357.49 142.17 338.1 130.96 321.56 100.99 322.15 103.07 305.91 101.51 286.11 83.79 280.8 72.58 268.09 85.87 257.46 89.26 241.21 86.69 219.57 114.8 241.51 132.24 264.75 128.62 237.96 213.43 323.48 214.7 315.98 238.17 321.87 321.38 237.96 317.75 264.75 335.19 241.51 363.3 219.57 360.74 241.21 364.13 257.46 377.42 268.09 366.21 280.8 348.49 286.11 346.92 305.91 349.01 322.15 319.03 321.56 307.83 338.1 277.33 357.49 248.14 385.07 236.15 387.43 225 397.77 213.85 387.43"/><polygon class="cls-2" points="225 52.23 267.06 53.78 300.46 78.69 321.94 115.27 346.6 132.4 377.62 155.74 384.78 202.44 368.08 238.25 356.94 248.37 329.9 268.72 307.26 294.61 295.5 293.58 284.1 317.87 261.4 330.2 244.56 338.1 225 362.34 205.44 338.1 188.6 330.2 165.9 317.87 154.5 293.58 142.74 294.61 120.1 268.72 93.06 248.37 81.92 238.25 65.22 202.44 72.38 155.74 103.4 132.4 128.06 115.27 149.53 78.69 182.94 53.78 225 52.23"/><path class="cls-3" d="m338.65,183.74l-15.56,4.89-14.82,9-7.68,18.21-3.22,18.81,7.69-5.02,4.87.95,10.48-.93,7.92-4.85,8.7-12.49,4.59-23.25-2.96-5.32Zm-227.29,0l15.56,4.89,14.82,9,7.68,18.21,3.22,18.81-7.69-5.02-4.87.95-10.48-.93-7.92-4.85-8.7-12.49-4.59-23.25,2.96-5.32Zm127.4,114.8l6.72-.79,4.05,3.46,3.06,4.35.59-3.65-3.46-7.7-2.88-4.35-4.92.59-4.15,3.75-2.47,4.94,3.46-.59Zm-27.52,0l-6.72-.79-4.05,3.46-3.06,4.35-.59-3.65,3.46-7.7,2.88-4.35,4.92.59,4.15,3.75,2.47,4.94-3.46-.59Z"/></g><rect class="cls-1" width="450" height="450"/></g></svg>