<?xml version="1.0" encoding="UTF-8"?><svg id="Layer_2" xmlns="http://www.w3.org/2000/svg" viewBox="0 0 450 450"><defs><style>.cls-1{fill:#2a5d95;}.cls-1,.cls-2{fill-rule:evenodd;}.cls-2{fill:#5ed8b9;}.cls-3{fill:none;}</style></defs><g id="Layer_5"><g><polygon class="cls-2" points="115.69 197.93 115 163.02 118.6 134.14 134.24 103.84 158.61 81.12 186.83 70.59 210.65 66.84 239.35 66.84 263.17 70.59 291.39 81.12 315.76 103.84 331.4 134.14 335 163.02 334.31 197.93 378.33 156.86 381.97 156.86 383.18 162.06 380.35 178.19 381.16 194.83 384.8 192.23 388.84 193.27 388.84 198.47 385.61 203.15 381.16 218.76 381.16 230.62 386.82 230.62 386.82 236.96 381.57 244.76 379.14 256.21 369.45 270.77 373.49 273.89 373.49 283.78 364.6 288.46 348.4 294.18 326.07 291.16 323.21 292.58 320.6 294.21 316.34 321.03 305.31 348.64 245.65 404.64 228.1 407.21 221.9 407.21 204.35 404.64 144.69 348.64 133.66 321.03 129.4 294.21 126.79 292.58 123.93 291.16 101.6 294.18 85.4 288.46 76.51 283.78 76.51 273.89 80.55 270.77 70.86 256.21 68.43 244.76 63.18 236.96 63.18 230.62 68.84 230.62 68.84 218.76 64.4 203.15 61.16 198.47 61.16 193.27 65.2 192.23 68.84 194.83 69.65 178.19 66.82 162.06 68.03 156.86 71.67 156.86 115.69 197.93"/><polygon class="cls-1" points="310.61 165.21 307.07 158.97 295.45 147.72 294.19 142.75 155.81 142.75 154.55 147.72 142.93 158.97 139.39 165.21 139.39 200.02 133.09 237.03 126.78 231.74 124.25 210.49 116.23 199.04 113.12 198.36 110.09 173.21 107.34 161.82 106.59 137.2 110.47 116.83 127.3 95.46 153.53 79.44 163.14 69.37 181.84 60 211.14 52.72 217.2 46.1 225 42.79 232.8 46.1 238.86 52.72 268.17 60 286.86 69.37 296.47 79.44 322.7 95.46 339.53 116.83 343.41 137.2 342.66 161.82 339.91 173.21 336.88 198.36 333.77 199.04 325.75 210.49 323.22 231.74 316.91 237.03 310.61 200.02 310.61 165.21"/></g><rect class="cls-3" width="450" height="450"/></g></svg>