<?xml version="1.0" encoding="UTF-8"?><svg id="Layer_2" xmlns="http://www.w3.org/2000/svg" viewBox="0 0 450 450"><defs><style>.cls-1,.cls-2{fill:#c00e35;}.cls-1,.cls-3{fill-rule:evenodd;}.cls-3{fill:#231f20;}.cls-4{fill:none;}</style></defs><g id="Layer_1-2"><g><path class="cls-1" d="m225,96.25c71.06,0,128.75,57.69,128.75,128.75s-57.69,128.75-128.75,128.75-128.75-57.69-128.75-128.75,57.69-128.75,128.75-128.75Zm0-34.81c90.27,0,163.57,73.29,163.57,163.57s-73.29,163.57-163.57,163.57S61.43,315.27,61.43,225,134.72,61.43,225,61.43Z"/><polygon class="cls-3" points="338.3 194.92 347.41 198.65 351.7 223.82 349.26 228.87 341.24 243.15 332.61 262.36 331.51 269.48 327.76 278.29 320.66 281.81 316.34 309.01 305.31 336.61 245.65 392.62 228.1 395.19 221.9 395.19 204.35 392.62 144.69 336.61 133.66 309.01 129.34 281.81 122.24 278.29 118.48 269.48 117.39 262.36 108.76 243.15 100.74 228.87 98.29 223.82 102.59 198.65 111.7 194.92 115.9 196.4 115 151 118.6 122.11 134.24 91.81 158.61 69.1 186.83 58.57 210.65 54.81 239.35 54.81 263.17 58.57 291.39 69.1 315.76 91.81 331.4 122.11 335 151 334.1 196.17 334.23 196.35 338.3 194.92"/><rect class="cls-2" x="70.21" y="205.55" width="309.59" height="40.25" transform="translate(-82.69 142.73) rotate(-30)"/></g><rect class="cls-4" width="450" height="450"/></g></svg>