<?xml version="1.0" encoding="UTF-8"?><svg id="Layer_2" xmlns="http://www.w3.org/2000/svg" viewBox="0 0 103.3 118.74"><defs><style>.cls-1{fill:#ebd162;}.cls-1,.cls-2{fill-rule:evenodd;}.cls-2{fill:#c6964d;}</style></defs><g id="Layer_1-2"><g><path class="cls-2" d="m87.11,59.96l3.19,7.1,2.45,7.33.24,1.3-11.8-2.52-1.65-4.95-1.65-5.17,9.22-3.1Zm-70.94.04l9.18,3.09-1.6,5.14-1.65,4.95-11.8,2.52.24-1.3,2.45-7.33,3.17-7.06Zm38.59,28.78v-26.39l1.84-1.41.69-1.88-.41-2.07,3.45-1.45.97-3.45,2.29-.11,3.19-1.29.93,6.05,1.53,5.36,4.13,11.01-8.05,9.2-6.21,4.79-4.36,1.63Zm-6.35,0v-26.39l-1.84-1.41-.69-1.88.41-2.07-3.45-1.45-.97-3.45-2.29-.11-3.19-1.29-.93,6.05-1.53,5.36-4.13,11.01,8.05,9.2,6.21,4.79,4.36,1.63Zm-22.71-9.75l-10.69,2.28,11.07,11.88,2.07,1.96,5.67-7.48-.62-.59-7.5-8.05Zm44.41,8.05l-.62.59,5.67,7.48,2.07-1.96,11.07-11.88-10.69-2.28-7.5,8.05Zm-13.32,8.65l-1.9.85v10.33l3.89-1.73,11.19-6.17-5.64-7.43-7.53,4.15Zm-17.81-4.15l-5.64,7.43,11.19,6.17,3.89,1.73v-10.33l-1.9-.85-7.53-4.15Zm-7.99-41.78l-1.95-4.23-4.34-2.09,26.96-3.97,26.96,3.97-4.34,2.09-1.95,4.23,2.26,4.31,1.09,2.88,9.03-3.04-1.28-3.21,3.24-.89,6.71-3.87.43,2.79.98,5.35,4.37,9.44,2.82,8.46,1.33,7.13-19.33,20.75-5.73,5.41-15.24,8.4-11.36,5.05-11.36-5.05-15.24-8.4-5.73-5.41L0,79.14l1.33-7.13,2.82-8.46,4.37-9.44.98-5.35.43-2.79,6.71,3.87,3.24.89-1.29,3.25,9.01,3.03,1.13-2.91,2.26-4.31Z"/><path class="cls-1" d="m43.74,16.39l-1.46,1.49-1.88,6.92,1.23,6.12,1.21,1.64-3.18-1.1-2.09-3.06-.21-5.1,2.4-5.34,2.3-1.71,1.67.14Zm15.82,0l1.46,1.49,1.88,6.92-1.23,6.12-1.21,1.64,3.18-1.1,2.09-3.06.21-5.1-2.4-5.34-2.3-1.71-1.67.14Zm-7.91-1.71l3.67,1.01,2.53,2.58,1.94,7.12-1.26,6.3-3.2,3.4-3.67.82-3.67-.82-3.2-3.4-1.26-6.3,1.94-7.12,2.53-2.58,3.67-1.01Zm-18.63,31.55l-16.38-4.5h0s-6.7-4.59-6.7-4.59l.92-2.52-.93-1.72h0l-.41-2.12-5.07-6.07L7.44,6.26l8.19-1.14,7.65,3.74h6.94l9.95-3.46L51.65,0l11.49,5.4,9.95,3.46h6.94l7.65-3.74,8.19,1.14,3,18.46-5.07,6.07-.41,2.12-.93,1.72.92,2.52-6.7,4.59h0s-16.38,4.5-16.38,4.5l-9.59.93h-9.05s-9.04,0-9.04,0l-9.59-.93Z"/></g></g></svg>