<?xml version="1.0" encoding="UTF-8"?><svg id="Layer_2" xmlns="http://www.w3.org/2000/svg" viewBox="0 0 89.77 125.03"><defs><style>.cls-1{fill:#5c5757;}.cls-1,.cls-2{fill-rule:evenodd;}.cls-2{fill:#211d23;}</style></defs><g id="Layer_1-2"><g><polygon class="cls-2" points="39.28 12.34 49 11.64 55.33 20.46 55.33 38.69 64.73 38.69 64.73 19 61.59 10.84 57.04 5.18 52.35 1.67 47.38 0 44.88 .07 39.28 12.34"/><path class="cls-1" d="m44.88,42.81c2.67,0,4.84,2.17,4.84,4.84s-2.17,4.84-4.84,4.84-4.84-2.17-4.84-4.84,2.17-4.84,4.84-4.84Zm35.41,16.66v-5.88c-.74-.39-1.42-.88-2.03-1.46l-4.74-4.49c-1.2-1.14-2.08-2.57-2.56-4.16l-2.99-9.97c-.42-1.4-.51-2.89-.26-4.33l1.25-7.23c.1-.56.24-1.1.44-1.63H20.37c.2.53.34,1.07.44,1.63l1.25,7.23c.25,1.45.16,2.93-.26,4.33l-2.99,9.97c-.47,1.59-1.36,3.02-2.56,4.16l-4.74,4.49c-.61.58-1.29,1.07-2.03,1.46v5.86l4.36,1.64,1.84,5.85-2.64,2.78,3.03,4.89,4.52.59,1.84,4.72-.68,3.86,2.42,3.37,4.7-1.36,3.53-4.14,1.23,7.52-2.01,6.32,9.4,10.53,3.87,3.78,3.87-3.78,9.44-10.57-2-6.28,1.23-7.52,3.53,4.14,4.66,1.35.26-.29,1.82-2.53.37-.6-.67-3.79,1.84-4.72,4.46-.58,3.04-4.9v-.04s-2.59-2.74-2.59-2.74l1.84-5.85,4.31-1.62Zm-28.36-39.15l-2.49,3.84-2.41,4.62-.75,5.37-1.39,2.89-1.39-2.89-.75-5.37-2.41-4.62-2.49-3.84m-26.36,3.24l-4.99-5.49v-7.23h76.8v7.23l-4.99,5.49-1.25,7.23,2.99,9.97,4.74,4.49,4.99.75v15.96l-4.49,11.97-10.97,17.7-18.7,20.95-10.73,10.47-10.72-10.47-18.7-20.95-10.97-17.7L0,61.95v-15.96l4.99-.75,4.74-4.49,2.99-9.97-1.25-7.23Z"/><polygon class="cls-2" points="38.52 75.16 37.42 74.67 32.73 71.17 25.04 57.34 25.04 19 28.12 10.84 32.73 5.18 37.42 1.67 42.39 0 44.88 .07 47.42 .07 47.42 10.84 44.78 10.84 40.77 10.89 36.46 13.84 34.44 20.46 34.44 55.89 38.86 62.58 41.26 59.45 48.51 59.45 50.91 62.58 55.33 55.89 55.33 37.66 64.73 37.66 64.73 57.34 57.04 71.17 52.35 74.67 51.25 75.16 51.25 120.81 49.1 125.03 40.67 125.03 38.52 120.81 38.52 75.16"/></g></g></svg>