<?xml version="1.0" encoding="UTF-8"?><svg id="Layer_2" xmlns="http://www.w3.org/2000/svg" viewBox="0 0 97.78 107.65"><defs><style>.cls-1{fill:#11421f;}.cls-2{fill:none;}.cls-3{fill:#017f4c;}</style></defs><g id="Layer_1-2"><g><polygon class="cls-2" points="80.26 16.84 79.32 10.79 73.45 13.17 62.21 13.97 48.89 12.44 81.88 52.26 17.9 15.49 12.6 29.06 10.92 39.01 56.84 90.87 10.36 66.71 15.59 78.67 27.24 90.77 40.61 97.55 48.89 98.63 56.9 97.61 70.32 90.87 72.01 89.09 23.09 33.55 86.94 67.5 87.54 66.84 88.41 47.36 85.28 29.63 80.26 16.84"/><path class="cls-3" d="m97.78,47.36l-3.37-19.83-5.38-14.45-1.77-9.71-6.34-3.37-9.71,4.09-9.95.56-12.36-1.85-12.36,1.85-9.15-.52,19.15,19.26L13.49,1.79l-2.97,1.58-1.77,9.71-5.38,14.45-2.45,14.41,20.51,20.71L.09,48.86l1.2,20.5,5.94,14.13,14.21,14.93,16.06,7.87,9.31,1.36h4.17l9.31-1.36,16.06-7.87,8.73-9.17-22.97-24.83,29.34,16.96,5.06-12.02,1.28-22Zm-10.24,19.48l-.6.66L23.09,33.55l48.92,55.54-1.69,1.79-13.43,6.73-8.01,1.02-8.28-1.08-13.37-6.77-11.65-12.1-5.24-11.96,46.48,24.16L10.92,39.01l1.69-9.95,5.3-13.57,63.98,36.77L48.89,12.44l13.33,1.53,11.24-.8,5.87-2.38.93,6.05,5.03,12.79,3.13,17.73-.87,19.48Z"/><polygon class="cls-1" points=".92 41.95 0 47.36 .09 48.86 21.43 62.66 .92 41.95"/><polygon class="cls-1" points="85.07 89.25 90.55 83.49 91.44 81.38 62.09 64.42 85.07 89.25"/><polygon class="cls-1" points="27.37 4.14 26.57 4.09 16.86 0 13.49 1.79 46.52 23.4 27.37 4.14"/></g></g></svg>