<?xml version="1.0" encoding="UTF-8"?><svg id="Layer_2" xmlns="http://www.w3.org/2000/svg" viewBox="0 0 102.67 118.74"><defs><style>.cls-1{fill:#a7b782;}.cls-1,.cls-2{fill-rule:evenodd;}.cls-2{fill:#46aa77;}</style></defs><g id="Layer_1-2"><g><path class="cls-1" d="m8.22,80.83l-7.49-2.47-.73-1.68,1.69-1.79-.82-2.89,2.82-8.46,4.37-9.44.98-5.35.43-2.79,6.71,3.87,3.24.89-3.52,8.85-3.36,7.48-2.45,7.33-.33,1.77,6.63,6.52-.23,1.31-2.23,1.1-.93.2,5.97,1.86,3.68,4.36.22,1.01-1.95,1.75-.87.09,4.64,1.47,3.78,6.92,4.83,5.34-8.68-2.8-5.73-5.41-7.64-8.2v-.66l1.89-.72.88-.11-5.72-2.39-4.69-4.41.12-1.06,3.33-1.48,1.18-.02Zm84.72-34.71l.26-.15.42,2.79.98,5.35,4.37,9.44,2.82,8.46-.17.6.69,3.71.35.37-.2.45.2,1.05-3.36,1.04-4.86,1.6,1.18.02,3.33,1.48.12,1.06-4.69,4.41-5.72,2.39.88.11,1.89.72v.66l-7.64,8.2-5.73,5.41-8.97,2.8,4.83-5.34,3.77-6.9,4.83-1.49-.78-.08-1.95-1.75.22-1.01,3.68-4.36,5.97-1.86-.93-.2-2.23-1.1-.14-.78-.46.14.4-.43-.04-.24,3.23-3.17,3.12-3.35-.33-1.77-2.45-7.33-3.36-7.48-3.52-8.85,3.24-.89,6.71-3.87.02.15Z"/><path class="cls-2" d="m66.38,25.77l-.28-3.16-1.26-2.9-.94-1.7,4.95,2.01,5.72,5.76-5.72,5.74-4.95,2.02.94-1.7,1.26-2.9.28-3.16Zm-30.37,0l.28-3.16,1.26-2.9.94-1.7-4.95,2.01-5.72,5.76,5.72,5.74,4.95,2.02-.94-1.7-1.26-2.9-.28-3.16Zm11.26,8.81l-1.57-1.3-.96-1.54.11-.53-.14-1.92.28-2.82.77-2.28,1.51-2.5,1.41-1.4,2.81-1.86,1.28-.93.24-.42-.17-.43-.71-.38-2-.19-2.71.9-2.01,1.31-1.72,2.07-1.08,2.05-.66,2.59v2.38s.49,2.11.49,2.11l1.04,1.8.81.73.05-.09-.39-.84-.07-.4-.21-.56-.27-2.77.21-1.98.79-2.43,1.22-2.08,1.34-1.4,1.48-1.17.42-.02-.65.48-1.07.85-1.29,1.39-1.18,2.04-.8,2.43-.2,1.88.19,2.69.19.56.08.42.34.83,1.03,1.51,1.4,1.16.37.05Zm7.59-17.75l1.65,1.21,1.05,1.48-.08.53.25,1.9-.12,2.83-.64,2.32-1.36,2.58-1.33,1.48-2.7,2.02-1.23,1-.22.44.2.42.73.34,2.01.07,2.66-1.05,1.93-1.42,1.6-2.17.96-2.11.51-2.62-.14-2.37-.61-2.07-1.14-1.73-.85-.68-.05.09.43.82.1.39.25.55.43,2.75-.1,1.99-.65,2.47-1.1,2.15-1.25,1.48-1.41,1.25-.42.04.62-.52,1.02-.91,1.21-1.46,1.07-2.1.66-2.47.09-1.89-.35-2.67-.22-.55-.1-.42-.38-.81-1.11-1.45-1.46-1.08-.37-.03Zm-8.46,39.58l-1.1-1.22,1.1-1.49-2.2.5-2.58-1.86,2.01-1.21-2.91-.16-2.23-2.29.06-1.86-5.98-.58-16.38-4.5h0s-6.7-4.59-6.7-4.59l.92-2.52-.93-1.72h0l-.41-2.12-5.07-6.07L6.98,6.26l8.19-1.14,7.65,3.74h6.94l9.95-3.46L51.19,0l11.49,5.4,9.95,3.46h6.94l7.65-3.74,8.19,1.14,3,18.46-5.07,6.07-.41,2.12-.93,1.72.92,2.52-6.7,4.59h0s-16.38,4.5-16.38,4.5l-5.98.58.06,1.86-2.23,2.29-2.91.16,2.01,1.21-2.58,1.86-2.2-.5,1.1,1.49-1.1,1.22v25.38h0v13.66l.76,1.53.72-1.44,8.39-1.56-3.18,9.37-3.61,4.75-3.38,4.33-4.49,6.33h0s0,0,0,0l-4.49-6.33-3.38-4.33-3.61-4.75-3.18-9.37,8.39,1.56.72,1.44.76-1.53v-39.04Z"/></g></g></svg>