<?xml version="1.0" encoding="UTF-8"?><svg id="Layer_2" xmlns="http://www.w3.org/2000/svg" viewBox="0 0 105.84 125.49"><defs><style>.cls-1{fill:#61b3ac;}.cls-2{fill:#533a2d;fill-rule:evenodd;}</style></defs><g id="Layer_1-2"><g><polygon class="cls-2" points="95 17.66 93.2 17.13 90.99 15.25 90.99 9.77 72.79 2.68 64.49 .94 52.96 0 53 .07 52.88 0 41.35 .94 33.05 2.68 14.85 9.77 14.85 15.25 12.64 17.13 10.84 17.66 0 17.66 0 59.08 4.48 62.65 12.78 67.37 35.73 53.66 35.73 38.4 49.84 23.82 51.78 23.82 59.41 27.76 59.41 42.01 55.19 42.01 40.68 60.55 47.84 60.55 47.84 71.92 27.16 71.92 27.16 77.34 39.94 81.42 65.9 81.42 78.68 77.34 78.68 71.92 58 71.92 58 52.16 76.25 52.12 91.01 68.54 101.36 62.65 105.84 59.08 105.84 17.66 95 17.66"/><path class="cls-1" d="m102.65,71.42v-1.51h-9.72v7.94l-6.16,3.62v-1.65h-9.72v6.08l-9.81,2.74v-2.76h-9.72v3.03h-9.27v-3.03h-9.72v2.76l-9.81-2.74v-6.08h-9.72v1.65l-6.16-3.62v-7.94H3.1v1.51l-3.1-2.22v12.67l2.56,7.4,4.73,8.74,8.83,8.39,2.85,2.05v.18h.24l6.45,4.64,11.69,3.92,15.52,8.29h0s0,0,0,0h0s0,0,0,0l15.52-8.29,11.69-3.92,6.45-4.64h.24v-.18l2.85-2.05,8.83-8.39,4.73-8.74,2.56-7.4v-12.67l-3.1,2.22Zm-83.67,22.97l-3.92-3.51,3.92,1.92v1.59Zm19.54,12.66l-8.12-2.88-1.69-1.11v-6.63l9.81,2.76v7.87Zm18.99,4.44l-4.64,2.5-4.64-2.5v-12.31h9.27v12.31Zm19.54-8.43l-1.69,1.11-8.12,2.88v-7.87l9.81-2.76v6.63Zm9.72-8.67v-1.59l3.92-1.92-3.92,3.51Z"/></g></g></svg>