<?xml version="1.0" encoding="UTF-8"?><svg id="Layer_2" xmlns="http://www.w3.org/2000/svg" viewBox="0 0 112.27 125.49"><defs><style>.cls-1{fill:#f2e46d;}.cls-1,.cls-2{fill-rule:evenodd;}.cls-2{fill:#efcc67;}</style></defs><g id="Layer_1-2"><g><path class="cls-1" d="m7.02,46.3l.27-5.74-1.48-13.47L0,17.25l4.03,2.24,7.16.67,7.83-2.68,1.34-5.82.22-4.92h18.11l.67-2.46h5.59l7.38-.89,3.8-3.38,3.8,3.38,7.38.89h5.59l.67,2.46h18.11l.22,4.92,1.34,5.82,7.83,2.68,7.16-.67,4.03-2.24-5.81,9.84-2.24,14.23.04,3.35-9.79-5.64,1.59-10-6.06-2.08c-3.28-1.12-5.74-3.86-6.52-7.23l-.68-2.96h-9.22c-2.49,0-4.81-.92-6.59-2.47-.29,0-.59-.03-.88-.06l-7.38-.89c-.9-.11-1.77-.34-2.6-.68-.82.35-1.7.57-2.6.68l-7.38.89c-.29.03-.59.06-.88.06-1.78,1.55-4.1,2.47-6.59,2.47h-9.22l-.68,2.96c-.78,3.38-3.24,6.11-6.52,7.23l-6.05,2.08.82,7.34-4.38,2.66-5.62,7.27Z"/><g><path class="cls-2" d="m106.9,72.93l-2.46-8.72-.07-6.13-.07-.03-.05-5.01-5.85-3.47-.15-.03-3.59-2.04-2.99-1.65-6.36.4-7.45,3.31-2.01,1.41-.21.06s-8.36-8.39-9.01-8.77c-.65-.38-11.41-9.13-11.41-9.13l-7.03-4.56-8.36.76-6.27,5.7-16.73,10.46-3.69,4.86-.3.21-4.86,6.58-.09,8.01-.45.45-2.07,7.33-.22,9.62,2.01,7.83,8.27,8.95,24.38,17,16.33,9.17h0l16.33-9.17,24.38-17,8.28-8.95,2.01-7.83-.22-9.62Zm-26.02,14.07h-5.66c-1.8,6.86-7.21,12.27-14.07,14.07v4.37h-10.03v-4.37c-6.86-1.8-12.27-7.21-14.07-14.07h-5.66v-10.03h5.66c2.22-8.46,9.93-14.71,19.08-14.71s16.86,6.25,19.08,14.71h5.66v10.03Z"/><path class="cls-2" d="m56.13,72.29c-5.35,0-9.7,4.34-9.7,9.7,0,3.51,1.87,6.6,4.68,8.3v-4.57h10.03v4.57c2.8-1.7,4.68-4.78,4.68-8.3,0-5.35-4.34-9.7-9.69-9.7Z"/></g></g></g></svg>