<?xml version="1.0" encoding="UTF-8"?><svg id="Layer_2" xmlns="http://www.w3.org/2000/svg" viewBox="0 0 103.3 118.74"><defs><style>.cls-1{fill:#51317f;}.cls-1,.cls-2{fill-rule:evenodd;}.cls-2{fill:#7755ac;}</style></defs><g id="Layer_1-2"><g><path class="cls-2" d="m64.86,109.06l.13-7.31,7.61-4.19,4.63-4.37,15.85-17.01-.33-1.77-2.45-7.33-3.36-7.48-3.52-8.85,3.24-.89,6.71-3.87.43,2.79.98,5.35,4.37,9.44,2.82,8.46,1.33,7.13-19.33,20.75-5.73,5.41-14.11,7.78h0s-2.34,1.1-2.34,1.1l3.08-5.12Zm-39.81-3.77l-5.73-5.41L0,79.14l1.33-7.13,2.82-8.46,4.37-9.44.98-5.35.43-2.79,6.71,3.87,3.24.89-3.52,8.85-3.36,7.48-2.45,7.33-.33,1.77,15.85,17.01,4.63,4.37,7.62,4.2.13,7.26,3.12,5.2-2.39-1.13-14.14-7.79Z"/><path class="cls-1" d="m51.65,10.6l8.07,3.94v6.79l-8.07,8.08-8.08-8.08v-6.79l8.08-3.94Zm-2.56,22.81v7.04l-13.57-3.68-4.69-6.75,3.93-4.59,1.66-5.64h1.71v2.27l10.95,11.36Zm5.12,0v7.04l13.57-3.68,4.69-6.75-3.93-4.59-1.66-5.64h-1.71v2.27l-10.95,11.36Zm-11.6,13.74l-9.59-.93-16.38-4.5h0s-6.7-4.59-6.7-4.59l.92-2.52-.93-1.72h0l-.41-2.12-5.07-6.07L7.44,6.26l8.19-1.14,7.65,3.74h6.94l9.95-3.46L51.65,0l11.49,5.4,9.95,3.46h6.94l7.65-3.74,8.2,1.14,3,18.46-5.07,6.07-.41,2.12-.93,1.72.92,2.52-6.7,4.59h0s-16.38,4.5-16.38,4.5l-9.59.93.93.61,2.6.44,4.95-.44,1.84-.44,1.2,1.7-.29,2.83-2.76,3.65-.76.76-1.35-.57-1.68-1.89-5.78-.38-1.83,1.12-.35,11.89-.72,39.77-5.05,12.51-5.06-12.51-.72-39.77-.35-11.9-1.83-1.12-5.78.38-1.69,1.89-1.35.57-.76-.76-2.76-3.65-.29-2.83,1.2-1.7,1.84.44,4.95.44,2.6-.44.93-.61Z"/></g></g></svg>