<?xml version="1.0" encoding="UTF-8"?><svg id="Layer_2" xmlns="http://www.w3.org/2000/svg" viewBox="0 0 135.89 139.23"><defs><style>.cls-1{fill:#7c9599;}.cls-2{fill:#97a49d;}</style></defs><g id="Layer_1-2"><g><path class="cls-1" d="m118.19,94.23l.16-8.07-3.47-19.19-2.65-16.95,2.04-8.37,4.49-12.05.41-18.58-3.27-11.02-1.23,9.19-8.17,11.23-11.23,6.94-12.86,3.88-7.96-1.43-.28-.32-6.24-26.79-6.04,26.53-.51.58-7.96,1.43-12.86-3.88-11.23-6.94-8.17-11.23-1.23-9.19-3.27,11.02.41,18.58,4.49,12.05,2.04,8.37-2.65,16.95-3.47,19.19.05,2.57-3.34,3.48L0,117l32.6-.08,10.62,8.03,18.17,11.43,6.53,2.85,6.53-2.85,18.17-11.43,10.85-8.2,32.4-.08-17.69-22.44Zm-37.3-54.44c1.35.24,2.73.16,4.04-.23l3.16-.95,6.07,12.31,1.74,18.94-3.74-4.08-1.89,4.83-.14-.4-4.06-9.19-.02-.04h0l-4.83-10.92-2.16,1.74-2.81-12.85,4.64.83Zm-38.51-2.39s-.28-.24-.75-.65l9.29,2.8c1.31.4,2.7.47,4.04.23l4.65-.83-6.54,27.75-1.91,4.59-2.67-1.65-6.36,10.71-.98-.14-1.54-19.53,2.76-23.28Zm45.32,80.4l-17.3,10.89-2.46,1.07-2.46-1.07-17.3-10.89-1.2-.91,41.81-.1.06.15-1.13.86Z"/><path class="cls-2" d="m37.15,86.65h0s.61.75.61.75l1.68-2.51,9.07-15.25,2.67,1.65.4-.96c-1.95-2.63-4.14-7.41-4.14-11.1,0-7.62,4.18-14.27,10.37-17.77.45-.26.92-.49,1.39-.71l5.41-22.97c-.42.03-.83.06-1.25.1-9.01.96-17.16,4.81-23.51,10.6-2.22,2.03-4.22,4.29-5.96,6.75-1.82,2.57-3.36,5.35-4.56,8.31-1.99,4.84-3.08,10.14-3.08,15.69,0,3.97.56,7.8,1.61,11.43,1.21,4.27,3.14,7.99,5.6,11.42l3.69,4.57s0,0,0,0Z"/><path class="cls-2" d="m106.04,75.7c2.19-5.05,3.4-10.62,3.4-16.48,0-7.02-1.75-13.65-4.83-19.45-1.06-2.01-2.28-3.91-3.65-5.71-1.79-2.36-3.84-4.52-6.09-6.45-6.42-5.51-14.54-9.08-23.45-9.84l5.22,23.02c6.87,3.29,11.63,10.3,11.63,18.42,0,2.68-.6,5.42-.6,5.42l.04.12,2.56,5.84,1.89-4.83,12.23,13.34c.33-.65.74-1.45.95-1.86l.7-1.55Z"/></g></g></svg>