<?xml version="1.0" encoding="UTF-8"?><svg id="Layer_2" xmlns="http://www.w3.org/2000/svg" viewBox="0 0 96.21 108.49"><defs><style>.cls-1{fill:#a3c76a;}.cls-1,.cls-2{fill-rule:evenodd;}.cls-2{fill:#548632;}</style></defs><g id="Layer_1-2"><g><path class="cls-1" d="m16.84,26.18l6.18,15.06,11.84,11.18,5.68,2.24.76.3,2.1,2.04.29,4.36-3.94,9.54,1.1,4.08,6.29,4.85.96,9.38,7.57-12.38-4.63-4.05-.72-2.79,3.31-3.14,2.04-5.16-2.12-3.23,2.12-3.8,5.68-2.24,11.84-11.18,6.18-15.06,10.39-13.37,2.13-10.22-19.29,10-2.74,2.67L57.46,0l-5.02,13.15-1.81-.28h-1.85l-.68.33-.68-.33h-1.85l-1.81.28L38.74,0l-12.39,15.26-2.74-2.67L4.32,2.59l2.13,10.22,10.39,13.37Zm14.83,3.9h7.17l-3.92-4.96v-8.19l1.49-2.07,1.13,3.61,4.99,4.66,5.56.94,5.56-.94,4.99-4.66,1.13-3.61,1.49,2.07v8.19l-3.92,4.96h7.17l7.75-6.48-3.67,8.99-5.52,5.24-6.56.61v.39l4.08,4-3.42,3.2-1.74.66v-2.08l-4.72-2.97-2.64-3.25-2.64,3.25-4.72,2.97v2.08l-1.74-.66-3.42-3.2,4.08-4v-.39l-6.56-.61-5.52-5.24-3.67-8.99,7.75,6.48Z"/><polygon class="cls-2" points="96.21 27.07 96.21 17.8 85.76 29.49 79.58 44.5 80.03 61.78 74.14 72.74 53.99 88.41 48.1 95.99 42.22 88.41 22.07 72.74 16.18 61.78 16.62 44.5 10.44 29.49 0 17.8 0 27.07 4.34 31.41 4.34 32.88 0 28.54 0 38.25 4.34 42.59 4.34 44.06 0 39.72 0 49.43 4.34 53.77 4.34 55.24 0 50.9 0 60.68 15.67 76.86 37.73 94.59 48.1 108.49 58.47 94.59 80.54 76.86 96.21 60.68 96.21 50.9 91.87 55.24 91.87 53.77 96.21 49.43 96.21 39.72 91.87 44.06 91.87 42.59 96.21 38.25 96.21 28.54 91.87 32.88 91.87 31.41 96.21 27.07"/></g></g></svg>